<svg id="Layer_1" data-name="Layer 1" xmlns="http://www.w3.org/2000/svg" viewBox="0 0 512 478.94"><defs><style>.cls-1{fill:#fff;}.cls-2{font-size:288.78px;font-family:ComicSansMS, Comic Sans MS;}.cls-3{fill:#ff0;}.cls-4{fill:none;stroke:#000;stroke-miterlimit:10;stroke-width:13px;}</style></defs><path class="cls-1" d="M405.07,102.26a151.18,151.18,0,0,0-10.8-27.67c-4-8-14.72-10.63-22.47-7.36-8.93,3.76-11.71,12.18-10.43,21.23l1.28,9L392.74,80c-3.2-3.11,1.3,3.12-.85-.75-.46-.84-1-1.64-1.42-2.5,0-.06-1.93-4.38-.9-1.83s-.73-2-.73-2c-2.55-6.41-5.08-12.26-9.3-17.72C371.69,45,360.87,38.94,349.09,34.35c-10.25-4-21.11-6.56-31.76-9.26a313,313,0,0,0-40.48-7.71C249.69,14.17,223.62,19,199,30.73c-21.48,10.21-40.83,24.86-59.52,39.42-21.18,16.5-39.25,35.52-49.38,60.74C86.6,139.65,94,151,102.69,153c10.41,2.37,18.37-3.2,22.14-12.58-1.31,3.26,0,0,.39-.8.56-1.19,1.14-2.36,1.76-3.53,1-1.85,2-3.66,3.15-5.44,1.39-2.23,2.89-4.38,4.43-6.5-.42.57-2.1,2.56.09-.1,1-1.22,2-2.44,3.06-3.63a176.51,176.51,0,0,1,21.56-20.34c1.88-1.52,3.77-3,5.69-4.51-2.51,1.94-.29.23.19-.13l3.21-2.41c4.33-3.23,8.68-6.43,13.09-9.56a272.28,272.28,0,0,1,28-17.77q3.43-1.86,6.95-3.55c1.3-.63,2.61-1.22,3.91-1.83.47-.22,3.19-1.3.46-.22a129.18,129.18,0,0,1,16.36-5.35c2.24-.56,4.5-1,6.77-1.44,3.64-.71,1.71-.33.85-.21,1.56-.22,3.14-.35,4.71-.47a129.28,129.28,0,0,1,17.93-.14c3.16.19,6.31.49,9.45.85.36,0,3.5.52.88.12,1.26.19,2.51.39,3.77.6,6.31,1,12.57,2.39,18.79,3.86,10.79,2.56,21.65,5.25,32.22,8.63,2.36.75,4.67,1.66,7,2.47-3.35-1.15-1-.46-.22-.08,1.31.64,2.63,1.25,3.91,2,.84.46,1.68.93,2.5,1.44,1.37.85,3.42,2.38,1,.45.91.73,1.79,1.51,2.64,2.33.38.37,3.38,3.78,1.88,1.86-1.7-2.17,1,1.63,1,1.72.74,1.27,1.35,2.61,2,3.93-.28-.59-1.34-3.36-.12-.19.53,1.38,1.08,2.75,1.64,4.12,2.87,7,6,13.42,11.52,18.82s15.08,7.15,21.82,2.81c7.33-4.73,9.45-12,8.27-20.33l-1.28-9-32.9,13.87c.8,1.61,1.57,3.22,2.34,4.84.87,2,1,2.19.3.64.34.83.66,1.67,1,2.51,1.37,3.64,2.52,7.34,3.55,11.08,2.5,9.08,12.9,15.57,22.15,12.58s15.24-12.42,12.57-22.15Z" transform="translate(0 -16.41)"/><path class="cls-1" d="M360.28,370.6c10,11.3,25.48,14.33,39.76,11.81s25.59-11.77,33.7-23.34c7.61-10.86,11.64-24.06,15.14-36.72,3.78-13.68,6.31-27.54,9.49-41.35l.15-.7c.6-1.95.49-1.83-.31.38l-3.73,3.62q2.58-1.41-.8.3l1.29-.31c2-.35,1.77-.35-.75,0a11.36,11.36,0,0,0,2.71-.33c10-1.27,19.38-5,25-13.85a23.54,23.54,0,0,0-2.64-28.54c-5.31-5.74-12.81-10.19-19-15-5-3.87,2.85,1.6-1.29-1.12-2.58-1.69-.15-.62,0,.44.07.49,1.41,6,.56,1.84l-.3,1.64c.19-1.06.44-2.11.73-3.15,1.9-7,4.58-13.89,6.58-20.91a322.6,322.6,0,0,0,9-41.69c2.69-18.32,2.76-36.47-10.74-50.84-9.79-10.42-24.17-15.27-37.61-18.9-9.08-2.45-20,3.06-22.14,12.57s2.85,19.52,12.57,22.15c4.56,1.23,9.06,2.58,13.49,4.23,3.14,1.16.14.11-.4-.17,1.24.63,2.5,1.2,3.72,1.89.8.44,1.56.95,2.35,1.41,3.36,1.94-1.84-2.1.65.42.94,1,1.89,1.87,2.8,2.85-.54-.58-1.83-3.1-.45-.41,0,0,1.71,3.83,1,1.86-.77-2.28.64,3.11.57,2.8-.67-2.94-.05-.4-.06.38,0,1.76.05,3.5-.05,5.27-.06,1.18-.19,2.35-.28,3.52-.35,4.19.34-1.66-.3,2.34a349.87,349.87,0,0,1-8.06,38c-3.23,11.74-9.91,24.64-8.92,37,1.35,17,14.84,24.88,27.12,34.27l.79.6c1.94,1.49,2.11,1.61.49.37l.93.82-2.89-12,2.69-4.8q2.89-2,.3-.4c.39-.52,3.59-1.12.39-.48,4.36-.87,1.24-.17.07,0-2.27.28-4.56.51-6.81.93a30.3,30.3,0,0,0-9.88,3.58C423.53,260.67,423,276.06,420,289.5a344.45,344.45,0,0,1-9.63,36c-.34,1-.69,2-1.06,3s-1.87,4.45-.55,1.56a67.93,67.93,0,0,1-4.36,8.27c-.55.88-1.13,1.72-1.72,2.57,2.19-3.18-1,1.06-1.61,1.69-.91.93-1.93,1.74-2.84,2.66,2.77-2.79.46-.44-.7.24-.19.11-4.11,2-1.46.87,2.44-1.08-2.4.67-2.94.81a14.07,14.07,0,0,0-2.63.52q3.88-.49.83-.27H390c-4,.41,3.45,1.2-.36.06l-1.24-.3q-2.82-.93.73.53c-.52,0-1.68-.93-2.22-1.19-1.61-1.09-1.41-.92.62.51a18.69,18.69,0,0,1-1.78-1.89c-6.25-7.09-19.17-6.86-25.46,0-6.94,7.56-6.66,17.89,0,25.45Z" transform="translate(0 -16.41)"/><path class="cls-1" d="M165.37,343.84c-.79-.45-1.56-.93-2.32-1.45,1.81,1.47,2,1.57.44.28-1-.94-1.88-2-2.86-2.91,3,2.87-.08-.18-.77-1.33-.58-1-2.4-5.47-.88-1.22-.47-1.29-.92-2.58-1.26-3.9-.23-.89-.43-1.78-.59-2.67.29,2.54.35,2.78.16.72,0-1.35,0-2.72,0-4.08,0-3.59-.86,3.28.35-1.26,1.18-4.39-1.24,1.46.43-1.59.68-1.24,1.38-2.42,2.13-3.63q1.75-2.44-.23.31c.61-.71,1.26-1.39,1.93-2s4.11-3.05.69-.79c1.18-.78,2.35-1.56,3.59-2.24.83-.45,1.67-.86,2.53-1.25q-3.21,1.36-.35.34c.28-.07,3.89-1.24,4.09-1-2.47.3-2.67.36-.6.2.94,0,1.88,0,2.82,0l-15.54-27.09a270.22,270.22,0,0,0-20.49,54.21c-1.1,4.33-2,8.69-3,13.06-.39,1.78-.93,3.5-1.37,5.27.75-3,.69-.87-.07-.1.53-.54,3.62-2.65,1.92-1.93-2.82,1.2,5-1,4.51-1,2.4-.07,4.68,1.66,6.66,2.8.05,0,3.19,2.88.53.2.26.27,1.08,3.18.4.87-1.35-4.64-2.87-9.12-3.77-13.89-.16-.88-.29-1.77-.46-2.65.55,2.9,0,0-.08-.56-.21-2.09-.4-4.19-.53-6.29-.29-4.84-.33-9.7-.23-14.55.19-9.19.91-18.36,1.51-27.53,1.1-16.95,1.11-33.66-2-50.43-3.36-18-11.66-35.71-25.4-48.11-10-9-26.27-5.58-30.09,7.94-7,24.79-1.62,51.66,5.45,75.85,3.83,13.11,11.21,23.54,23.48,29.94,10.43,5.45,21.38,10.13,32.13,14.9,22.59,10,45.66,19.33,69.81,24.83,11.78,2.68,23.75,4,35.66,5.91a215,215,0,0,1,37.09,9.65c5.44,1.9,10.84,3.92,16.23,5.95,6.2,2.35,7.78,2.5,13.83,6.32.92.58,1.81,1.19,2.68,1.84-3-2.25-.44-.23.29.43,1.63,1.48,3.18,3,4.69,4.64,3.38,3.55,6.53,7.31,10,10.79,8.91,9,19.66,15.7,32.36,17.4,13.76,1.85,26.74-1,39.36-6.51C449.88,389.36,476.1,349,481,306.93q.48-4.06.65-8.14c0-1.25.12-2.52.08-3.77-.09-3.1-.09.31-.88,1.68-.23.39-1.65,2.58-2.52,2.58,1.4,0,4.93-3.67,5.92-4.48a41,41,0,0,0,7.46-8.4c7.43-10.53,9.44-24.24,6.7-36.69-1.62-7.39-5.67-13.42-10.24-19.25.09.12-3-4-1.53-1.93,1.21,1.66-1.37-2.12-1.62-2.54-.59-1-1.14-2.07-1.63-3.15,1.27,2.82.37.61-.07-1.05-.24-.92-.4-1.85-.61-2.77,1,4.3.09.32.06-.88s.13-2.39.08-3.56c.11-1.37,0-1-.25,1.24.15-.94.33-1.87.55-2.79s.52-1.83.76-2.74c1.12-4.15-1.75,2.79.34-1,.57-1,1.12-2.08,1.76-3.08,2.46-3.85-1.26,1.21,1.13-1.38l-30.09-8q.54,3.32.15.79c.13,1.25.23,2.49.31,3.74.13,2.19.16,4.38.12,6.56s-.18,4.38-.4,6.56c.3-2.92-.7,3.8-.84,4.47h34.72a37.56,37.56,0,0,1-1.25-5.1c.14.93.11,3,.13-.37,0-1.15,0-2.3,0-3.45,0-.4.83-5.85.14-2.13a96.3,96.3,0,0,1,5.11-17.2c.44-1.14.89-2.26,1.35-3.39-1.07,2.63.39-.93.66-1.55,1.42-3.29,2.85-6.59,4.24-9.9a127.11,127.11,0,0,0,5.57-15.61c3.29-12.07,4.62-25.79.53-37.86-4.52-13.36-13.76-22.63-25-30.66C463.38,78.07,442,65.13,417.86,63.44c-11.33-.79-24,3.15-31.67,11.79a26.44,26.44,0,0,0-6.88,21.13c1.2,8.93,6.14,14.84,11.65,21.61l26.27,32.26c1,1.18,2,2.32,2.89,3.56-2-2.73,1,1.77,1.07,1.91l-.41-1.29q.74,2.85.37.63a5.6,5.6,0,0,1,.24-3.18c-.48,1.57-.48,1.65,0,.23,2-3,1.53-4.22,6.42-5.67a8.2,8.2,0,0,1,8.39,1.31c2.66,1.83,3.18,2,1.59.55,2.89,3,1.24,1,.65.42q1.29,3.39.29.55c-.26-.84-.49-1.69-.67-2.55L408,164.22c2.6,3.14-.85-1.7,1.06,1.51.84,1.39,1.72,2.72,2.49,4.15.18.33,2.36,5.06.92,1.54.61,1.49,1.13,3,1.59,4.57s.76,3.14,1.19,4.7c.92,3.29.09-1.26.21.79.09,1.61.25,3.21.26,4.83,0,.69,0,1.38,0,2.06.42-2.43.49-3,.24-1.58-.17.47-.3,2.93-.82,3.16q1.59-3.42.27-.81l-.65,1a5.72,5.72,0,0,1,2.23-2.53A7,7,0,0,1,420.1,186a9.94,9.94,0,0,1,7.27.88q3,2.52,1.54,1c-.89-1-.54-.54,1.07,1.32-2-2.68.74,3.36-.25-.25a64.19,64.19,0,0,1-1.71-7.41l-8.27,20.33q-11.19,4.56-15.86-2.29c-.75-1.09-.71-.93.13.5-.75-.1-1-2.75.15.57a58.9,58.9,0,0,1,2.18,7.93c.18.94.36,5.31.24,1.14,0,1.25.21,2.49.26,3.74a78.1,78.1,0,0,1-.2,8.24c-.23,3.52.47-1.72,0,.43-.29,1.21-.45,2.46-.74,3.67a71.68,71.68,0,0,1-2.66,8.59c.88-2.35.46-1.05-.3.5-.56,1.12-1.14,2.22-1.76,3.3-.75,1.31-1.58,2.54-2.38,3.81-2,3.2,1.82-2-.81,1.13-5,6-7.41,14.7-2.82,21.82,4.11,6.36,12.67,11,20.33,8.27-2,.7-6.3-.46-8-1.34-2.31-1.15-2.62-4.89-4.36-5.84-.95-.51,1.41-3.58-.18.52.19-.5.65-2-.19-.31-2.1,4.26-2.83,10.06-4.17,14.63-2.61,8.84-5.35,17.64-8.52,26.3-.72,1.94-1.45,3.88-2.21,5.81-.44,1.1-.88,2.2-1.33,3.3,1.07-2.57-.1.19-.28.59-2,4.31-4,8.58-6.25,12.74-1.13,2.08-2.3,4.14-3.53,6.16-.52.84-1.06,1.67-1.59,2.51-.18.28-1.7,2.16-.36.58,1.47-1.73-.72.53-1,.95-1.51,2,2.24-1.65.19-.19-1.51,1.08.38-.21.68-.33,1.63-.15,1.79-.2.46-.15a21.34,21.34,0,0,1-2.65-.09c2.81,0-1.4-.19-2.39-.38-1.52-.28-3-.59-4.52-1-1.74-.44-3.41-1-5.12-1.55-2.3-.71-.46.5.65.31-.67.11-2.25-1.22-2.79-1.52-3.63-2,1.17,1.54-.6-.56,2.89,3.44,1.13,1.82.73.88,1.89,4.44.62,2.05.48,1.09.12.86-.2,4.17.2,1-.08.63-.06,4,.12.78,0,.1-1.22,3.11-.31,1.24.67-1.37-2.13,1.57.32-.15,2.8-1.95.22-.15-.23.12l2.52-1.48c1.25-.71,2.47-.37-.31.12.7-.12,1.41-.43,2.1-.6s3.55-.21,1.21-.3c-3.22-.13,2.87.06-.46,0-2.16,0-.18-.12.4.18-2-1.06-3.46-1.65-4.66-3.83,0,0-1.16-3.53-.66-1.63.53,2.08-.12-2.6,0-3.22.7-5.09,5.73-8.81,10.65-9.34,3.85-.41,4.65.92,6.67,2.67,2.26,2,.85,1.76.33.29.07.22,1.89,3.53.94,3.39-.24,0-.1-3.52-.09-3.77,0-.75.14-1.51.15-2.25,0,4,0-.06.25-1.13a52.55,52.55,0,0,1,1.53-5.76c.3-1,.7-1.87,1-2.82-1.07,3.47-.15.37.27-.49a61.22,61.22,0,0,1,3.29-5.87c.54-.84,1.11-1.65,1.68-2.47,1.88-2.75-1.06.93.41-.48s3-3.32,4.66-4.84c.54-.5,1.16-1,1.67-1.49,1.42-1.46-2.28,1.46.48-.39A72.79,72.79,0,0,1,399,290l-26.44-20.32a213.76,213.76,0,0,1-11.14,44.1l35.36,4.78c-.06-5.25.05-10.49.41-15.73q.3-4.15.77-8.29c.11-1,.36-2.7.07-.72.23-1.53.47-3.05.73-4.57A188,188,0,0,1,407,258l-32.9,4.3c.87,2,1,2.2.29.68.45,1.11.88,2.24,1.3,3.36.62,1.69,1.21,3.4,1.77,5.11q1.95,6,3.35,12.16c.39,1.76.76,3.52,1.09,5.3.11.63,1.1,7.49.7,4.12.49,4.18.76,8.37.9,12.58a18.07,18.07,0,0,0,15.6,17.68c8.08,1.08,18.28-4.05,19.75-12.9a577.77,577.77,0,0,0,7.38-69.18c.41-9.42-8.58-18.42-18-18a18.38,18.38,0,0,0-18,18q-.69,15.69-2.27,31.33c-1.14,11.11-1.94,17-3.82,28.28l35.36,4.79a163.79,163.79,0,0,0-14.32-61.48c-2.83-6.45-11.6-9.44-17.93-8.59-7.39,1-12.51,6-15,12.89a202.88,202.88,0,0,0-11.52,70.17,18,18,0,0,0,15.61,17.68c9.3,1.25,16.6-4.37,19.75-12.89a214.38,214.38,0,0,0,11.13-44.1c1.06-7.43-.14-14.05-6.45-18.92a18.24,18.24,0,0,0-20-1.41,75.38,75.38,0,0,0-30.46,30.33c-7.07,13.14-12.17,30.79-7.46,45.52,3,9.45,10.6,17.33,20.4,19.72a25.14,25.14,0,0,0,28.19-12.24c4.54-8.28,3.77-18.92-1-26.94-5.31-9-15.62-13.88-25.85-14-16.94-.22-35.43,10.59-40.53,27.33-4.86,15.94,3.95,31.85,18.4,39,14,6.91,34.38,11.44,48.61,3.53,13.54-7.54,20.89-24,26.81-37.65,7.05-16.18,12.37-32.89,17.25-49.83,3.1-10.76,6-22.11.27-32.61C430,241,417.11,234.55,405.89,238.57l17.52,30.09c12.66-15.36,20-34.28,19.47-54.38a76.11,76.11,0,0,0-5.35-26.63c-2.81-6.82-6.34-12.92-12.91-16.85-6.83-4.07-16.36-4.72-23,0-7.25,5.18-9.59,11.71-8.27,20.33,1.63,10.7,6.75,21.43,16.37,27.06,13.33,7.8,29.88,1.43,37.05-11.48,12.15-21.9,1.33-50.31-13.3-68-4.84-5.85-15.59-6.82-21.81-2.81a18.64,18.64,0,0,0-8.27,20.32c3.56,15,16.1,28.61,32.81,25C451.42,178,460.11,161.1,456,146.42c-3.73-13.26-15.18-24-23.68-34.4l-11-13.5c-2-2.5-4.06-5-6.1-7.5-2.64-3.22-1-1-.45-.52q-1.63-2.73-.25-.17a7.12,7.12,0,0,1,.36,3.87,9.22,9.22,0,0,1-2.5,5.65c2.24-2.58-.88.93-1,.61s4.09-2,1.13-.77c-2.8,1.14,1.15-.21,1.44-.31,3.62-1.24-1.17.42-1.06,0s2.92-.07,3.28-.06a41.77,41.77,0,0,1,4.18.32c-3.94-.54,1.4.43,1.76.51,2.72.64,5.3,1.57,8,2.4.51.16,3.25,1.2.37,0,1.3.52,2.57,1.15,3.83,1.76a153.62,153.62,0,0,1,14.85,8.38q6.75,4.23,13.33,8.73l2.66,1.88c4.19,2.93-2.2-2.33,1.47,1.19.77.74,1.6,1.42,2.37,2.18.25.25,3.67,4.11,1.39,1.17a27.72,27.72,0,0,1,2.15,3.39c.54,1,1.34,4,.43.74.26.95.53,2,.86,3,1.52,4.28.14-2.06.22.59.07,2.37.07,4.72,0,7.09,0,4.91.6-2.06,0,.83-.42,1.87-.72,3.76-1.19,5.62-.68,2.69-1.5,5.34-2.41,8-.45,1.31-.93,2.61-1.42,3.91-.27.68-2.47,6-1,2.53-2.87,6.7-5.88,13.36-8.39,20.2-5.26,14.32-7.58,30-3.19,44.84,2.16,7.32,9.41,13.57,17.36,13.22,7.58-.34,15.7-5.3,17.36-13.22a109.91,109.91,0,0,0,.66-41.26c-2.21-13.37-21.52-17.26-30.09-7.94-15.91,17.32-19.61,43.37-8.1,64.14a44,44,0,0,0,3.37,5c1.39,1.86,2.84,3.7,4.29,5.51,1.83,2.29-1.92-3.46.52.79a20.35,20.35,0,0,1,1.5,2.51c-.15.12-1.28-4.31-.26-.62.23.84.44,1.73.7,2.56,1.11,3.59.29-3,0,.51,0,.33.16,4.61.09,1.61-.05-2.5-.05.1-.24.9-.26,1.09-.63,2.13-.95,3.21.21-.7,1.82-3.27.19-.65-.46.74-.94,1.53-1.37,2.29,1.83-3.24.89-1-.12,0-.42.41-2.45,2.46-.71.82,1.95-1.85-3.21,2.41-3.35,2.52a27.91,27.91,0,0,0-10.65,16.69c-1.22,6-.86,12.25-1.4,18.31-.08.88-.61,3.45.08-.37-.18,1-.31,1.95-.49,2.92q-.66,3.64-1.57,7.24a125.83,125.83,0,0,1-4.12,12.68c-1.65,4.46,1.11-2.13-.21.48-.44.88-.82,1.8-1.25,2.69q-1.45,3-3.09,5.92a139.78,139.78,0,0,1-7.68,11.82c-1.68,2.38,2.73-3.13-.39.45-.65.75-1.26,1.52-1.91,2.27q-1.95,2.24-4,4.37c-1.72,1.77-3.5,3.49-5.34,5.13-.74.66-1.49,1.31-2.24,1.95s-4.21,3.28-1,.88a103.19,103.19,0,0,1-10.52,6.93c-2.05,1.17-4.15,2.25-6.28,3.28-3.18,1.54-1.11.48-.39.2-1.59.62-3.2,1.2-4.84,1.7-2.45.75-4.92,1.25-7.43,1.78-2.85.59,3.92.15-1,0-1.1,0-2.21.08-3.31.05a27.81,27.81,0,0,1-3.28-.23c3.54.54.52,0-.06-.22.22.08-4.85-1.68-2.53-.7,1.7.71-2.1-1.22-2.54-1.5-.84-.52-3.46-2.48-.45-.09-.75-.6-1.48-1.23-2.2-1.87-1.44-1.29-2.82-2.66-4.16-4.06-3.4-3.53-6.56-7.3-10-10.81-8.52-8.77-18.25-14.31-29.52-18.8-22.07-8.79-44.21-16-67.78-19.36a309.35,309.35,0,0,1-66.06-16.43q-4.35-1.63-8.65-3.37l-4.31-1.75c-3.29-1.34,1,.47-2.55-1.07q-8.55-3.69-17-7.56t-16.87-7.84c-2.46-1.15-4.95-2.27-7.32-3.59.11.06-4.3-2.57-2.13-1.13,2.35,1.55-2.93-3.22-1.26-1.11,1.54,1.94-1.2-2.27-1.15-2.2,1.22,2.21.18.49-.29-.92-1-2.9-1.67-5.87-2.41-8.82-1.51-6-3-12-4.12-18.11-.23-1.22-.42-2.45-.65-3.66-.79-4.1,0,1.25-.39-2.54-.32-3-.56-6.08-.63-9.13a89.82,89.82,0,0,1,.4-10c.26-2.92-.7,2.23.14-.59.6-2,.92-4.17,1.5-6.21l-30.09,7.94c1.44,1.3,2.83,2.62,4.14,4,.64.69,1.23,1.47,1.88,2.15-2.37-2.45-.77-1.07-.21-.25a97.75,97.75,0,0,1,6,10.48c1.19,2.32-1-2.83-.15-.34.3.91.68,1.8,1,2.71.64,1.83,1.2,3.68,1.71,5.55a122.42,122.42,0,0,1,2.52,12.27c-.74-4.45.14,1.71.22,2.63q.27,3,.4,6c.2,4.22.23,8.44.14,12.67-.23,9.67-1.09,19.31-1.67,29-1.25,20.66-1.34,42.48,6.07,62.12,4.66,12.35,13.83,22.62,28.15,21.53,14.63-1.12,24.45-12.63,27.87-26.22,2.63-10.47,4.71-21,8.08-31.25,1.73-5.25,3.64-10.43,5.69-15.56,1.36-3.39.63-1.54.32-.8.72-1.69,1.48-3.37,2.24-5,1.28-2.8,2.62-5.55,4-8.3,6.15-12.29-1.35-26.63-15.54-27.08-23.21-.75-45.71,15.52-51.74,38.07-6,22.34,4.54,46.77,24.26,58.47,8.11,4.81,20.11,2.1,24.63-6.46s2.2-19.49-6.46-24.62Z" transform="translate(0 -16.41)"/><path class="cls-1" d="M94.49,93.07c-30.22-7.4-59,15.88-58.58,46.87.19,14.84,5.91,28.53,9.67,42.64.81,3,1.55,6.11,2.17,9.21.36,1.84.73,3.7,1,5.57-.11-.86-.23-2.83,0,.82a86.28,86.28,0,0,1,.22,9.91c-.06,1.33-.16,2.66-.3,4,.44-4.26-.53,2.27-.73,3.08-.25,1-.53,2-.85,3.07-.14.48-2,5.35-.4,1.64a52.88,52.88,0,0,1-3.79,6.88c-2.49,4,2.32-1.94-1.09,1.3-1,1-2,2.06-3,3.12a51.87,51.87,0,0,0-7.11,9.27,25.65,25.65,0,0,0-.62,25c4,7.61,11.69,9.23,18.05,13.83-3.08-2.23-.54-.28.19.44s1.66,1.72,2.45,2.62c-2.76-3.13.09.32.52,1,0,.07,2.4,4.16,1.06,1.69s.54,1.64.62,1.88a26.24,26.24,0,0,1,1,4.19c-.35-2.9-.11.24-.12.68-.08,2.43,0,4.9,0,7.34-.12,14.58,3.05,28,11.23,40.23A157.31,157.31,0,0,0,79.9,356.81c4.69,5.23,9.32,10.82,14.55,15.53,13.76,12.42,35.59,17.73,49.8,2.59,6.45-6.87,7.32-18.74,0-25.46-7-6.42-18.57-7.33-25.46,0-2.41,2.57,1-.18,1.48-.67l.91-.4q-3,.68.74-.07c-.71.13-3.93-.26.64.15-2.63-.23-.76-.25.22.27-.45-.24-4.57-3.17-1.66-.8-.83-.67-1.63-1.44-2.4-2.18-2-1.9-3.78-3.94-5.63-5.94-3.31-3.61-6.65-7.2-9.87-10.89-.89-1-1.76-2-2.62-3.07-.54-.64-2.72-3.45-.7-.77a78.11,78.11,0,0,1-4.5-6.59c-.68-1.12-1.32-2.26-1.93-3.43-.43-.83-1.75-4-.46-.68-.75-2-1.23-4-1.84-6-1.33-4.34-.21,1.88-.22-1.05,0-1.52-.16-3.06-.18-4.58,0-3.06.12-6.12.06-9.18-.27-13.37-4.28-25.26-12.74-35.64a53.9,53.9,0,0,0-12-10.64,28.08,28.08,0,0,0-6.3-3.31c-4-1.35.85-4.2,3.7,6.45a9.09,9.09,0,0,1-.33,7.15c-.63,1.37-.54,1.31.29-.2l-1.13,1.36c.45-.57.93-1.11,1.42-1.64.78-.87,1.61-1.67,2.41-2.52a82.21,82.21,0,0,0,6-7.18,63.74,63.74,0,0,0,8.66-16.65c8.72-23.63,2.4-49-4.74-72.09-.89-2.87-1.76-5.75-2.51-8.67-.37-1.45-.71-2.91-1-4.38-.19-.88-.35-1.75-.5-2.64.22,1.87.22,1.71,0-.46,0-1.17-.13-2.31-.11-3.48,0-.88.93-5.18,0-2.07.32-1.1.6-2.25.89-3.36-.89,3.4.19-.1.6-1,1.6-3.65-1.66,1.42,0-.19,1-.95,1.94-1.92,2.9-2.88,1.68-1.7-3.48,1.74.2,0,1-.46,4.71-2.13.59-.63.86-.31,1.71-.63,2.59-.88a26.89,26.89,0,0,1,2.65-.64l-2.09.25c.75-.41,2.53-.13,3.4-.11,4.79.14-2.35-.64,1.26.24,9.13,2.24,20-2.91,22.15-12.57,2.11-9.29-2.79-19.75-12.57-22.14Z" transform="translate(0 -16.41)"/><path class="cls-1" d="M332.15,84.83C321.08,67.1,296.94,63.55,278.07,59.3c-19.91-4.49-40.49-7.18-60.84-4.44-17.59,2.36-34.91,8-49.15,18.92-16.18,12.39-26,28.81-33,47.74-6.64,18.06-11.32,36.93-16.71,55.39-3,10.42-6.72,21.05-6.75,32,0,10.43,3.31,20.28,6.71,30,12.59,35.88,25.07,74,51.4,102.46,22.79,24.64,56.38,37.94,89.7,38.2,34.94.27,66.95-14.44,91.17-39.31,25.58-26.26,44.8-60,57.1-94.33C419.88,212,424,174.63,415.61,139.36c-4.5-18.85-12.69-37.81-26.52-51.71-12.83-12.89-29.72-20.85-46.95-26-16.82-5-34.44-7.89-51.78-10.42-20.43-3-41.06-5.13-61.73-3.78-35.88,2.34-71.48,14.38-97.45,40.1-27.5,27.23-36.29,66.61-30.5,104.12,2.8,18.15,11.6,35.85,26.28,47.19,14.39,11.11,34.33,17,52.14,11.07,38.81-12.85,43.92-61.11,39.43-95.74-2.52-19.45-6.71-41.08-20.12-56.2a35,35,0,0,0-27.9-11.73C159,87,148.67,92.78,139.82,99.8c-28,22.23-35.89,65-15.22,94.76,10.21,14.69,25.12,26.34,42.74,30.55,10.59,2.53,22.17,2.8,31.44-3.71,8.77-6.15,13.83-16,15.36-26.48a96.29,96.29,0,0,0-10.29-58.81c-5.23-10-12.81-19.38-23.76-23.17-12.56-4.35-24.83,1.06-32.63,11.17-12.45,16.11-19.18,41-14.1,61a37.49,37.49,0,0,0,21.55,25.5c12.25,5.17,25.21,2,34.93-6.7,14.16-12.73,21.84-33.85,20.83-52.67-.62-11.44-3.32-25.2-14.37-31.23-6.83-3.72-15.56-3.87-22.24.33-5.18,3.25-8.82,8.18-12.22,13.17A78.12,78.12,0,0,0,149.22,186c.85,6.53,2.9,12,8.92,15.55,5.39,3.15,12.79,3.41,18.17,0,23.56-15,38.79-43.34,35.23-71.52-1-7.69-4.88-15.46-13.22-17.36S183,114.28,178,121a76.81,76.81,0,0,0-14.34,53.88c.9,7.37,3.81,13.38,11.06,16.45,6.39,2.69,14.77,1.58,19.66-3.73a189.53,189.53,0,0,0,43-76.14L202,106.66a138.34,138.34,0,0,1-.09,20.86l-.2,1.89c.21-1.33.22-1.36,0-.08-.23,1.57-.51,3.13-.81,4.68-.73,3.73-1.67,7.41-2.74,11.06l32.9-4.3-27.18-53-31.09,18.17c9.48,16.72,28.34,13.37,44.12,11q21.83-3.35,43.55-7.34l-9.57-34.71q-24.3,8.75-49.23,15.49c-9.09,2.47-15.56,12.92-12.57,22.15,3.23,10,12.18,14.33,22.14,12.57A382.5,382.5,0,0,1,251,119.88c14.26-1.17,28.57-1.66,42.89-1.56L281.13,87.6c-1.6,1.47-3.23,2.89-4.91,4.26,1.41-1.14.92-.68-.25.12-.89.62-1.78,1.24-2.68,1.84-1.82,1.18-3.68,2.3-5.58,3.34-.95.52-1.91,1-2.88,1.51-.37.19-4.3,2.07-2.27,1.14,1.74-.8-1.3.51-1.62.63-1,.39-2,.75-3.06,1.09q-3.09,1-6.24,1.83c-2.11.53-4.26.83-6.36,1.34-2.7.65,2.72-.19-.05,0-1.35.11-2.69.25-4,.35l12.73,30.73a73,73,0,0,1,8.59-9.08c.78-.69,1.58-1.36,2.39-2-1.59,1.22-1.55,1.21.11,0s3.46-2.32,5.27-3.36,3.68-2,5.55-2.89,1.9-.86,0,0c1-.38,2-.74,2.94-1.07,2-.67,4-1.24,6-1.73.78-.19,7.33-1.32,2.91-.73L272.15,87.83a136.92,136.92,0,0,0-14.59,52.82c-.84,11.65,12.18,20.5,22.78,17.36a137.35,137.35,0,0,0,74.31-54.46c4.32-6.29,2.73-16.72-2.81-21.81A18.69,18.69,0,0,0,330,78.92c-18.66,9.77-32.92,28.59-36.77,49.35-1.42,7.64.86,16.41,8.27,20.33,7,3.71,16.07,3.07,21.82-2.82,12.34-12.65,21.2-28.93,24.07-46.44L321,110.09c4.44,2.93,8.83,6,13.12,9.09,1.2.88,2.38,1.76,3.56,2.65.39.29,3.43,2.67,1.28,1q3.13,2.48,6.21,5a315.21,315.21,0,0,1,24.12,22.25c6.6,6.73,18.92,7.11,25.45,0a18.38,18.38,0,0,0,0-25.46c-.74-.81-1.45-1.66-2.2-2.46,2.09,2.23-.25-.35-.67-1a68.43,68.43,0,0,1-3.76-6.41c-.67-1.25-.88-2-.2-.22-.4-1-.78-2.07-1.12-3.11a61.59,61.59,0,0,1-2-8L350.09,113q11.87,48.12,28,95l34.71-9.57a265.1,265.1,0,0,1-15.14-58.3c-1.05-7.42-10.23-13.54-17.36-13.22-7.56.34-15.72,5.29-17.35,13.22a448.36,448.36,0,0,0-9.34,96.8c.14,9.41,8.18,18.44,18,18s18-7.91,18-18l-.26-61.56h-36c0,6.2-.18,12.39-.71,18.57-.13,1.54-.28,3.08-.44,4.62-.06.51-.54,4.53-.16,1.67-.41,3.07-.94,6.13-1.51,9.17a205.43,205.43,0,0,1-10.24,35.68l35.35,4.79a213.27,213.27,0,0,1,1.69-24.35c-.41,3.12.43-2.64.43-2.65q.45-2.78,1-5.55c.81-4.31,1.78-8.58,2.83-12.83,2.28-9.13-2.93-20-12.57-22.14-10.44-2.38-18.34,3.2-22.14,12.57l-24.71,60.87,34.71,9.57q5.49-38,11-76.08c3.76-26.31,7.33-52.76,6.58-79.41a18.06,18.06,0,0,0-15.61-17.67c-9.43-1.27-16.42,4.42-19.75,12.89a231.65,231.65,0,0,0-14.47,109.2c1,9.33,7.54,18.47,18,18a18.39,18.39,0,0,0,18-18l3.66-84.68h-36L323.42,300c-.26,9.42,8.47,18.43,18,18a18.38,18.38,0,0,0,18-18l4.41-93.26h-36c.26,8.71.14,17.42-.42,26.11q-.37,5.58-1,11.15c-.06.63-.94,7.48-.51,4.47-.26,1.85-.55,3.69-.85,5.54a272.61,272.61,0,0,1-12.76,48.65H347c-.62-3.06-1.18-6.13-1.65-9.22-.15-.94-.34-2.76-.12-.78-.17-1.55-.35-3.1-.5-4.65-.55-5.59-.87-11.21-1.06-16.83-.39-11.94-.14-23.88,0-35.81.35-24.44,0-49-5.47-72.91-4-17.37-30.47-16.93-34.71,0a753.56,753.56,0,0,0-21.17,139.38c-.54,9.41,8.67,18.41,18,18,10.75-.49,16.75-7.95,18-18l19.79-158.64h-36l2.89,170.91c.16,9.41,8.17,18.44,18,18,10-.45,17.72-7.91,18-18,2.06-73,3.53-146.1-7.6-218.53C332.33,88.15,323.3,82,316.11,82.35s-16.06,5.28-17.36,13.22l-34,208.13,35.35,4.79a343.82,343.82,0,0,1-.55-85.05c.07-.62.72-5.78.29-2.58.21-1.53.44-3.06.67-4.59q.75-5.06,1.65-10.08,2-11,4.55-21.81a402.15,402.15,0,0,1,12.17-40.93l-35.36-4.78Q279,191,274.58,243.31c-2.93,35-5.38,70.05-3.16,105.13.57,9,6.41,16.44,15.61,17.67a18,18,0,0,0,19.75-12.89c8.88-32.67,12.08-66.61,14.17-100.3,1-16.32,1.79-32.66,2.93-49,.56-8.15,1.22-16.29,2.05-24.42.41-4.05.89-8.1,1.36-12.15a25.09,25.09,0,0,1,.35-2.68q.54-3.72,1.12-7.44l-35.36-4.78q.24,88.73-4.25,177.37h36c-2.07-31.52-4.53-63-7.79-94.46-3.08-29.66-7.79-59.6-23.36-85.6-8-13.38-28.55-10.59-32.9,4.3a617.64,617.64,0,0,0-23,129.24h36q-.06-11,.89-22c.29-3.35.71-6.68,1.06-10,.16-1.29.15-1.21,0,.24.12-.91.25-1.81.39-2.72.22-1.51.46-3,.7-4.53C279.43,230,282.6,216,286,201.93c6.79-27.86,14.52-55.53,18.79-83.93l-34.71-9.57q-15.51,112.22-24.18,225.2h36L278.6,228.16c-1.08-34.4-.59-69.89-10.52-103.18-2.18-7.32-9.4-13.57-17.36-13.21-7.39.33-16,5.28-17.35,13.21-10,57.54-11.61,115.86-12.81,174.11h36q-5.76-81-4-162.21c.21-9.42-8.42-18.42-18-18a18.39,18.39,0,0,0-18,18q-4.46,112.5-3.53,225.12c.08,9.41,8.22,18.44,18,18,10.18-.46,17.46-7.91,18-18a1080.83,1080.83,0,0,0-3.6-162.13c-.92-9.35-7.63-18.47-18-18-9.31.41-18.56,7.93-18,18,1.23,22.31,2.45,44.65,2.52,67,0,11-.21,22-.87,32.95-.34,5.47-.77,10.94-1.33,16.4q-.41,3.86-.88,7.7c-.75,6.17.26-1.59-.26,1.94-.23,1.6-.48,3.2-.73,4.8l26.44-10.76c2.1,1.49.87,1.45.12-.17-1-2.17,1.27,2.86.42.58-.28-.74-1.7-2-1.6-2.86-.09.77,1,3.06.32.59-.56-2-1.14-4-1.52-6-.68-3.65-.74-.44-.08-.07-.25-.14-.24-2.45-.27-2.8-.94-11.34-1.11-22.78-1.62-34.15l-3.22-72c-.4-9-6.54-16.46-15.61-17.68-8.37-1.13-17.87,4.1-19.75,12.89a302.4,302.4,0,0,0-.75,122.88c1.75,8.77,11.49,14,19.75,12.89,9.35-1.25,14.77-8.63,15.61-17.67A445.3,445.3,0,0,0,221.87,204c-1.42-8.81-11.75-14-19.75-12.9-9.29,1.25-14.85,8.63-15.6,17.68-1.28,15.22-2.63,30.42-4.45,45.59-.44,3.69.21-1.26-.36,2.77-.27,1.89-.54,3.77-.83,5.66q-.87,5.64-1.89,11.27-2.07,11.24-4.92,22.31l32.9-4.3a239.94,239.94,0,0,1-21.24-33.91q-2.19-4.26-4.21-8.61c-.61-1.32-1.19-2.65-1.79-4-1.72-3.76.5,1.39-.91-2.11-2.58-6.48-4.93-13-7-19.7l-32.9,13.87a146.35,146.35,0,0,1,9.23,16.55c.17.36,2,4.41,1.2,2.58s.9,2.27,1,2.64q1.69,4.43,3.09,9A139.42,139.42,0,0,1,157.73,286c.07.41.75,4.91.45,2.72s.25,2.33.29,2.74c.33,3.44.52,6.88.61,10.33L194.44,297l-18.39-69.06-34.72,9.57q6.53,19.65,13,39.28a36,36,0,0,0,1.37,4.34c.32,1.3.34,1.11.07-.59l1.43-4.78a9.08,9.08,0,0,1,4.3-4c1.17-.53,5.21-.58,2.33-.79q3.88.69,1.86.14-1.83-.56,1.34.5c2,.87,1.14,1.09-.33-.43-.65-.67-2.41-3.33-.5-.41-.83-1.26-1.69-2.49-2.51-3.75-4.21-6.47-12.55-10.79-20.33-8.27-8.17,2.64-12.29,9.1-13.22,17.36-3.43,30.6,9.33,63.41,32.5,83.72,6.16,5.39,13,10,18.9,15.68q1.72,1.68,3.35,3.47c.65.72,3.74,4.44,1.77,1.9a83.75,83.75,0,0,1,6.17,9.34c1.75,3,3.33,6.14,4.78,9.31.34.74.67,1.48,1,2.22-.13-.29-1-2.5-.26-.55s1.57,4,2.29,6.09c2.4,6.84,4.28,13.82,6.08,20.84,2,7.65,4.61,15.28,9.48,21.57,6.64,8.61,15.58,12.82,26.34,13.79,8.58.77,17.65-.3,26.12-1.65,8.14-1.29,16.53-4.18,23.29-9a48.15,48.15,0,0,0,17.9-22.56A40.55,40.55,0,0,0,312.2,417c0-1.87-.1-3.73-.17-5.6,0-.93-.07-1.86-.08-2.79s.09-4.21,0-1.64c0-.17.76-2.82.11-.79s.21-.4.37-.71c.86-1.62,1.76-3.23,2.58-4.88a42.6,42.6,0,0,0,4.6-13.88C321,376,317.09,365,307.78,359c-8.8-5.65-20.23-4.76-28.79.84a100.67,100.67,0,0,0-9.72,7.63c-2.69,2.27,1.77-1.5-.88.6-.26.21-2.27,1.66-.22.33,2.42-1.58-1.1.83-1.64.36-.06,0,3.66-.23,1.44-.16-.69,0-1.38.1-2.06.13-1.64.06-3.28,0-4.92-.05-3.25-.12-6.51-.37-9.77-.26-9.27.31-18.49,2.93-25.24,9.6-15,14.87-10.22,39.71,6,51.32,14.69,10.48,47.25,10.82,52.81-10.66a24.23,24.23,0,0,0-.6-13.88,15.94,15.94,0,0,0-.93-2.29c-.8-1.42.35-1.26-.31.08s-1.42,8.8-3.07,9.39c.71-.25,1.8-2.21,2.3-2.81q7.8-9.46,16.32-18.31c5.66-5.88,12.06-11.1,17.65-17-2.72,2.88.22.14,1.37-.69,1.55-1.12-.88.38-1.2.46,1.56-.39,1.26.24.06-.17l-1.18.19q-5.87.16-8.48-4.72c.57.67-3.63-3.34-2.88-4.67-.66,1.17.16,5.17.13,6.62,0,2.21-.17,4.41-.35,6.61,0,0-.34,3.07-.11,1.36s-.24,1.36-.24,1.35a105.38,105.38,0,0,1-3.21,12.73c-2.94,9.15-5.55,18.1-4.24,27.81.33,2.47.72,4.9,1.19,7.34.05.27.31,2.91.19.91s-.07,1-.09,1.13c-.06.77-.79,3.05-.07.73a19.61,19.61,0,0,0-.77,2.69c-.29,1.95.05.25.3-.35-.37.87-.82,1.72-1.26,2.56-.77,1.46-1.78,2.78-2.57,4.22-.93,1.7.56-.63.73-.83-.45.54-.9,1.08-1.37,1.61q-1.62,1.86-3.42,3.55c-.52.48-1.05.95-1.58,1.42-.32.27-2.75,2.18-.95.83s-.2.11-.48.3c-.8.53-1.58,1.08-2.4,1.59-1.22.78-2.47,1.51-3.74,2.22Q277.33,451.9,275,453l-2,.91c1.41-.65,2-.79.22-.14A148.14,148.14,0,0,1,253.92,459c-2.06.44.62-.08.89-.1-1,.09-2.09.22-3.13.29-1.57.11-3.14.17-4.71.17-.78,0-1.56,0-2.33-.07-.57,0-3.87-.22-1.45,0,2.19.19-.27,0-.63-.13-1-.22-2-.42-2.95-.69s-1.9-.63-2.86-.92c.35.11,2.48,1.39.87.31-.56-.37-4.13-2.45-2.64-1.4,1.65,1.17-.34-.33-.57-.56-.72-.73-1.42-1.52-2.15-2.24.24.24,1.46,2.29.45.57-.53-.89-1.14-1.73-1.67-2.63-.92-1.59-1.73-3.23-2.49-4.9,1.28,2.79-.14-.55-.52-1.63-1.29-3.71-2.38-7.49-3.46-11.26Q221,421.33,218,408.74q-6-25.2-9.89-50.84c-.34-2.22-.66-4.43-1-6.65.33,2.44-.28-2.15-.37-2.83q-.82-6.66-1.52-13.34l-22.78,17.36c-5.29-1.81-8.63-5.62-9.07-10.69.31,3.57,1.14-3.38.08.13a53.39,53.39,0,0,0-2.08,10.4c-.77,7.63,1.31,15.85,6.82,21.41a22.75,22.75,0,0,0,10.85,6.1c7.22,1.76,12.16-1.12,18-4.7a41,41,0,0,1,4.43-2.38c-2.81,1.3,1.18-.29,2-.52,1.35-.38,2.73-.61,4.09-.94s1.1-.21-.63.08c1.11-.09,2.23-.13,3.35-.13l-9.09-33.55-19,8.08c-6.53,2.77-13.2,5.13-18.39,10.21-13.34,13.05-9.94,34,3.24,45.75l17.52-30.08c-13.58-2.22-26.45-1.26-39.88,1.66-5.48,1.19-10.9,2.66-16.33,4-2.73.68-5.46,1.34-8.21,1.93-1.53.33-3.06.63-4.6.91-.5.09-4.51.69-1.68.33a69.82,69.82,0,0,1-8.3.54c-1.23,0-2.45,0-3.68-.07-1-.06-4.12-.49-1.6-.06a71.24,71.24,0,0,1-7.07-1.84c-2.29-.64,3.37,1.93-.37-.24-.85-.49-1.71-.94-2.54-1.46-.15-.09-3.49-2.7-1.75-1.15s-1.44-1.48-1.44-1.48c-.68-.68-1.3-1.41-1.94-2.13,1.57,1.78.91,1.22-.06-.4-.22-.37-1.82-3.07-.68-1s-.3-1.2-.5-1.76c-1.06-3,.22.71,0,.68s0-4,.07-4.23L66.84,381.43,85,392.76l18.17-31.08a79.86,79.86,0,0,1-8.68-4.82c-1.28-.83-2.51-1.73-3.77-2.6-1.67-1.15.43.31.63.48-.77-.67-1.57-1.3-2.33-2a77.52,77.52,0,0,1-7-7c-.47-.54-3-3.79-1.95-2.33,1.19,1.67-.27-.43-.41-.65-.69-1.06-1.42-2.1-2.1-3.19-1.63-2.6-2.89-5.36-4.37-8-1-1.78.19.53.29.79-.41-1-.81-2.09-1.18-3.15-.72-2-1.36-4.08-2-6.14a200.21,200.21,0,0,0-8.72-24.83,188.78,188.78,0,0,0-10.66-19.62c-3.8-6.34-9-13.27-11.33-20.35.87,2.69,0-2.63.31.66,0,.2-.22,2.91.09.7.26-1.82.06-.08-.21.42a108.14,108.14,0,0,1,6.38-10.38c4.31-6.24,9.07-12.19,12.93-18.74C69,214,73,192.12,62.19,174.66c-4.06-6.55-12.67-10.76-20.33-8.28-7,2.26-14.12,9.38-13.22,17.36L32,213.28l18-18c-4,.29,3.82,1.43.21.22.42.14,4.67,1.82,4.07,2.4.05-.05-3.29-3.05-1-.8,2,2-.41-.82-.69-1.31a10.06,10.06,0,0,1-1.18-2.34l.79,1.84c-.31-.84-.6-1.68-.86-2.53A65.12,65.12,0,0,1,49.68,186q-.85-4.4-1.57-8.8c-.24-1.48-.46-3-.68-4.44-.52-3.36.41,4.25-.17-1.44a165.68,165.68,0,0,1-1-17.81c0-2.95.14-5.9.41-8.83.1-1.16.2-2.34.37-3.5-.54,3.82.43-1.88.49-2.15.53-2.59,1.19-5.14,2-7.67.44-1.41.93-2.79,1.43-4.18,1.54-4.37-1.73,3,.5-1.05,1.18-2.16,2.29-4.31,3.64-6.38.54-.82,1.12-1.62,1.67-2.43-2.35,3.44.39-.44.86-1a58.91,58.91,0,0,1,4.62-4.73c.89-.83,1.83-1.6,2.76-2.4-3.09,2.68.44-.22,1-.61,2-1.32,4.17-2.28,6.24-3.5-2.91,1.72-1.43.51-.37.18,1.34-.43,2.66-.91,4-1.27.91-.24,1.82-.42,2.74-.62,4.32-1-2.63-.1.08,0,1.17,0,2.36-.11,3.53-.08s4.89,1,.91-.09a78.23,78.23,0,0,1,8,2.22c-3.16-1.19,3,1.61,3.91,2.15,2.18,1.26,4.23,2.69,6.31,4.1,4.44,3-2.42-2.19,1.66,1.28,1.2,1,2.43,2,3.56,3.05-.17-.15,2.06,2.19,2.09,2.18-1.4.42-2-4.69-2-5,0-.68,1.24-3.93.14-1.12,2.09-5.33-1.21.43.76-1.73s-1.24,1-1.38,1.07c2.71-2.45,1.06-.78.19-.4s-4.93,1.71-.89.57c-1.35.38-2.65.8-4,1.08-1,.2-2,.33-3,.49,4.47-.73-.61,0-1.28.14-3.36.43-6.73.82-10.06,1.42a43,43,0,0,0-17.13,6.86c-12.25,8.66-16.95,22.85-13.92,37.35C58.8,171.71,69,183,81.77,186.07c5.67,1.38,13.64.37,17.52-4.63,6.6-8.53,10.85-17.64,10.29-28.72L74.22,157.5c3.48,15.09,6.12,24.37,4.53,39.34.33-3.09-.41,1.93-.53,2.45-.33,1.44-.7,2.87-1.15,4.27-.56,1.74-1.17,2.65-.07.48-.67,1.33-1.41,2.61-2.14,3.91-2.06,3.68,2.2-1.91-.74,1-1,1-3.76,2.59-.65.92l-1.17.75q-2.7,1.4.53-.09l-1.32.38q3.75-.31.6-.16c-11.56.38-20.61,11.21-17.36,22.78a712.08,712.08,0,0,0,58.32,144.33c4.46,8.31,16.66,11.6,24.63,6.46a18.39,18.39,0,0,0,6.45-24.63q-8.73-16.24-16.62-32.94c-5.61-11.9-9.88-21.7-14-32.06a686,686,0,0,1-24-70.73L72.11,246.77c21.25-.71,36.34-18.14,40.82-37.91,4.63-20.37.61-40.94-4-60.93-4.51-19.58-36.39-15.61-35.35,4.79a21.67,21.67,0,0,1,0,3.12q.55-3.28-.12-.17-1,3,.11.06c-1.11,1.73-1,1.81.22.26l17.51-4.63c-1.4-.34-4.24-1.84.21.31-3.27-1.58,2.68,2.93.2.26s1.17,2.86.4.72a15.28,15.28,0,0,0-1.37-2.38c.64.14,1.69,3.95.3.15-1.26-3.47-.22,4.08,0,.42a18.54,18.54,0,0,0,0-2.19q-.72,4.46-.11,1.58c.58-1.83.34-1.4-.71,1.27l.51-.95c1-1.58.73-1.23-.88,1,.78-.88,1.81-1-.55.21.83-.43,4.84-2,.88-.74,1.41-.46,2.81-.88,4.26-1.2,1-.22,2-.36,2.95-.57,5-1-3.79.43,1.27-.19,4.1-.51,8.25-.92,12.31-1.73,14-2.78,28.34-13.56,31-28.14,3.3-18.31-10.31-30.17-23.89-39.56-11.55-8-25.93-13.27-40.12-12.2-14,1.06-26.46,6.69-37.38,15.4-21.85,17.43-30.58,45.25-30.4,72.42.09,15.05,1.89,31.27,5.95,45.78C20.5,216.4,32.14,232.57,50,231.28c8.86-.65,19.16-7.77,18-18l-3.34-29.54L31.1,192.83c.39.62.73,1.37,1.16,2,1.41,1.91-.42-2.5-.1-.17.1.69.41,1.47.58,2.15.14.53.15,2.68.12.57,0-2.33-.08.31-.1.61-.07,1-.13,2.11-.11,3.05,0-.28.63-3,.14-1-.24,1-.41,2-.66,3-.46,1.78-1.08,3.48-1.66,5.22,1-2.88-.16.21-.76,1.34A96.92,96.92,0,0,1,23.23,220C12.93,234.81-1.37,251.12,6,270.46,11.88,286,22.31,299.13,29.42,314c.49,1,1,2.07,1.43,3.12-.16-.37-.78-2.27-.2-.33.53,1.74,1.24,3.43,1.79,5.17,1.31,4.1,2.4,8.26,3.68,12.37A101.12,101.12,0,0,0,46,357.08,94.29,94.29,0,0,0,85,392.76c8.47,4.08,19.84,2.61,24.63-6.45,4.67-8.85,2.08-19.3-6.46-24.63L85,350.34c-12.36-7.72-26.09,2.59-27.08,15.55-1,13.12,5.25,26.41,14.74,35.28,10.66,9.95,23.87,14.71,38.28,15.71,13.61.95,27.46-2.44,40.56-5.79,6.34-1.63,12.69-3.21,19.14-4.36,5.71-1-3.18.11,2.57-.33,1.23-.09,2.45-.2,3.68-.25,1.84-.07,3.68-.08,5.52,0,.66,0,5.72.69,2.55.17,7.69,1.26,16.36-.76,20.32-8.27,3.61-6.81,3.28-16.37-2.81-21.81a20,20,0,0,1-2.1-2c1.25,1.72,1.33,1.74.23,0q1.11,3.17.19.29a6.83,6.83,0,0,1-.12,4.1,8.16,8.16,0,0,1-1.94,3.2q-2.91,2-.37.34c1.47-.72,2.9-1.5,4.41-2.16,8.82-3.85,17.72-7.53,26.57-11.29,7-2.95,10.49-13.49,8.27-20.33-2.41-7.45-9.21-13.39-17.35-13.21-12.63.26-25.39,4-35.51,11.69l13.87-1.81c1.73.35,11.5,8.62,8.56,10.67a17.82,17.82,0,0,1,.06-2.31l-.3,2.48c1.35-.37,2.36-12.43,2.36-12.33.54-12.14-5.71-21.91-17.28-25.87-10.29-3.51-24,6-22.79,17.36a633.91,633.91,0,0,0,18.3,100c4.26,15.73,8.5,32.29,19.79,44.63,11.07,12.1,28.41,16.63,44.35,15.51,28.31-2,60.76-14.95,74.76-41.25,4.38-8.24,7.49-17.9,6.52-27.33-.28-2.7-.71-5.4-1.2-8.08-.14-.82-.29-1.65-.47-2.47-.46-2.09.1.32.09.65,0-1,.49-5-.11-2.22.43-2,1-4,1.59-6,5.06-16.29,10.66-35.93,5.75-53a24.4,24.4,0,0,0-27-17.44c-9.12,1.23-16.25,6.13-22.94,12.2a321.85,321.85,0,0,0-31.94,33.49c-3.42,4.14-7.28,8.25-8.68,13.58a24.88,24.88,0,0,0,.5,14.79,13.75,13.75,0,0,0,1.33,3.41c-1.13-1.44,11.07-15.78,7.89-15.55a11.45,11.45,0,0,0-2.14.5c.33-.1,3.12-.08,1.13-.2a20.2,20.2,0,0,0-2.2.05c-3.24.13-.4,0,.42.19-.9-.23-1.89-.57-2.8-.71.34,0,2.58,1.52,1,.42-.56-.39-1.26-.75-1.86-1.09.14.08,2.31,1.84.93.55s.69.94.78,1.1c-1.55-3,.54,2.8-.3-.49-.26-1,.14-2-.12-.17.15,1.31.21,1.46.17.45q.06-2.1-.32,1.6c.67-3.15-1.59,2.38.11-.34a20.82,20.82,0,0,1-2,2.28c-1.16,1.4-.51.32.3-.05-4.1,1.89-.11-.38.48.2.15.15-3.78.2-1.53.25.89,0,1.8-.08,2.7-.09,6.71,0,13.12.55,19.81-.35,9.09-1.22,16-5.81,22.89-11.58.55-.46,3.87-2.93,2-1.73-2,1.31,3.4-.87.46-.39-3.83.64-7.83.73-11-2.31a9.59,9.59,0,0,1-2-2.84c-.3-.66-.79-4.19-.81-2.8,0,2.09.25-1.73.35-1.68a9.22,9.22,0,0,1-.48,1.79c-.87,1.46.3-.69.38-.84-.38.68-.72,1.41-1.08,2.1-2.17,4.13-4.46,8.33-5.75,12.83A45.92,45.92,0,0,0,276,410.43c.06,1.87.19,3.73.19,5.6,0,.93,0,1.86-.07,2.79.11-1.64.35-1.63-.2-.09-.16.43-1.14,2.39-.14.54,1.13-2.08-.56.54-.79,1.06-.75,1.67.35-.39.64-.71-.5.54-1,1.1-1.5,1.63s-1.11,1-1.61,1.52c.2-.21,2.41-1.55.7-.53-1.49.88-3,1.77-4.48,2.63,2.6-1.48-.78.24-1.95.6-2,.59-4,.85-5.93,1.4s0,.07.46,0c-.86.12-1.74.19-2.62.27-2,.18-4.09.3-6.14.39-3.22.13-6.77.52-10,0,.27.05,3,.14.87-.12s1.08.77,1.6,1c1.55.62.47.4-.23-.27-1.61-1.54-.15-.56.33.53-.53-1.21-1.34-2.43-2-3.6,1.46,2.74.33.62-.18-1-1-3.27-1.79-6.62-2.66-9.94a199.31,199.31,0,0,0-6.06-19.42c-5.66-15.08-13-29.14-23.9-41.14-5.17-5.71-11.32-10.28-17.32-15.07-2.75-2.19-5.45-4.44-8-6.89-1.11-1.07-2.18-2.18-3.23-3.32-.52-.57-1-1.14-1.54-1.73,0,0-2.85-3.59-1.5-1.78,1.06,1.41-1.35-2-1.74-2.56q-1.28-1.93-2.45-3.93a79.17,79.17,0,0,1-4.55-8.95c1.39,3.23-.32-1.09-.69-2.18-.5-1.47-.95-2.94-1.37-4.43a100.18,100.18,0,0,1-2.11-9.81c.56,3.2.05.08-.06-1.35-.14-1.8-.21-3.6-.22-5.4a83.73,83.73,0,0,1,.56-10l-33.54,9.08c6,9.25,13,17.66,24.08,20.8,11.65,3.31,25.43-1.52,31.6-12.1,6.9-11.82,1.54-24.35-2.35-36.06l-9.93-29.93c-3-8.92-12.56-15.67-22.15-12.57-9.34,3-15.17,12.39-12.57,22.14l18.4,69.06c5.16,19.39,35.93,15.77,35.35-4.78A160.68,160.68,0,0,0,170,219.5c-4.88-7.58-14.05-10.92-22.48-7.36-8,3.36-13.09,12.6-10.42,21.23a253.57,253.57,0,0,0,38.77,76.9c4.45,6,10.13,9.64,17.93,8.59a17.94,17.94,0,0,0,15-12.89c8.17-31.76,11-64.58,13.73-97.17l-35.36,4.79c1.43,8.84,2.1,13.89,3,23.86q1.2,12.93,1.62,25.94a428.57,428.57,0,0,1-1.67,52.9l35.35-4.79c-.93-4.66-1.77-9.34-2.47-14.05-.14-.94-.28-1.88-.41-2.82q.34,2.46-.08-.87c-.27-2.53-.56-5-.79-7.57q-1.19-13.26-1.1-26.6a232.92,232.92,0,0,1,5.61-51.83L190.9,203l3.58,79.94c.55,12.45.64,25,2.66,37.32a45.66,45.66,0,0,0,19,30.75c8.81,6.24,24.72.23,26.45-10.75,7.32-46.64,5.42-93.44,2.83-140.37h-36A1080.83,1080.83,0,0,1,213.06,362h36q-.93-112.58,3.53-225.12h-36q-1.78,81.17,4,162.21c.67,9.37,7.81,18.46,18,18,9.92-.44,17.8-7.9,18-18,.58-28,1.16-56,2.79-84,.79-13.64,1.83-27.27,3.25-40.87q.56-5.34,1.18-10.66c.2-1.62.39-3.23.6-4.84,0,.09.76-5.73.38-3q1.47-10.63,3.32-21.21H233.37a181.52,181.52,0,0,1,5.35,23.83c.2,1.24.38,2.48.55,3.72-.19-1.36-.2-1.4,0-.12.19,2.19.49,4.38.7,6.56.36,3.76.64,7.53.88,11.3,1.05,16.75,1.33,33.55,1.85,50.31l3.25,103.48c.29,9.4,8.07,18.44,18,18,10.36-.47,17.24-7.92,18-18q4.14-54.78,9.94-109.41,2.88-27.06,6.18-54.08,1.68-13.75,3.46-27.5c1.3-10,2-15,3.31-24.64,1.28-9.28-2.24-19.79-12.57-22.14-8.57-2-20.65,2.61-22.14,12.57-8.82,58.68-32.22,114.89-31.95,174.9,0,9.41,8.25,18.44,18,18,10.32-.46,17.28-7.92,18-18s1.68-20.41,2.93-30.57q.23-1.9.48-3.81c.1-.78.39-2.88.12-.92.35-2.53.72-5.07,1.11-7.6q1.23-8.06,2.68-16.09a595.45,595.45,0,0,1,14.36-60.68l-32.9,4.3c1.76,2.94,3.41,5.93,4.91,9,.74,1.53,1.47,3.08,2.13,4.65-1.21-2.86.47,1.38.71,2a153,153,0,0,1,5.35,18c1.59,6.74,2.76,13.55,3.79,20.39a11.13,11.13,0,0,1,.28,2.1c.17,1.43.35,2.87.52,4.3.39,3.44.75,6.89,1.1,10.33,3,30.29,5.44,60.65,7.44,91,.61,9.38,7.84,18.46,18,18s17.49-7.91,18-18q4.49-88.61,4.25-177.37a18,18,0,0,0-15.6-17.68c-8-1.08-18.36,4-19.75,12.89-5.3,33.63-6.82,67.54-8.87,101.46-1,16.27-2.14,32.53-4.12,48.71-.12.93-.23,1.86-.35,2.79q.36-2.53-.11.78-.39,2.79-.82,5.56-.93,6-2,12-2.34,12.43-5.67,24.66l35.36,4.79c-2.22-35.08.23-70.17,3.16-105.13s5.95-69.76,8.92-104.64c.76-8.9-7.43-16.58-15.61-17.68-9.21-1.24-16.72,4.34-19.75,12.89-19.67,55.57-27.85,116-20.06,174.61,1.2,9,5.94,16.38,15.61,17.67,8.06,1.09,18.3-4,19.75-12.89l34-208.13H298.75c.4,2.56.77,5.13,1.15,7.7.53,3.58-.1-1,.4,2.92q.87,6.75,1.61,13.52,1.35,12.56,2.27,25.17c1.3,17.78,2,35.61,2.29,53.44.59,35.41-.4,70.82-1.4,106.21h36l-2.89-170.91c-.16-9.41-8.17-18.44-18-18-10.75.48-16.75,7.95-18,18L282.39,301.83h36q1-16.79,2.68-33.5.84-8.11,1.86-16.22c.16-1.27.33-2.54.5-3.81-.35,2.61.2-1.42.27-1.87q.6-4.27,1.26-8.55,5.12-33.23,13.31-65.86H303.56c.7,3,1.33,6.1,1.86,9.18.22,1.23.41,2.46.6,3.69l.27,1.85c-.2-1.39-.22-1.45-.06-.16.44,5.6,1,11.17,1.29,16.79.53,11.91.34,23.84.16,35.76-.37,24.52-.28,49,4.64,73.09,1.51,7.39,9.9,13.55,17.36,13.22,8.39-.38,14.54-5.44,17.35-13.22a286.17,286.17,0,0,0,16.8-105.49c-.28-9.4-8.08-18.44-18-18a18.4,18.4,0,0,0-18,18L323.42,300h36l4.83-170.35c.27-9.42-8.47-18.43-18-18a18.39,18.39,0,0,0-18,18l-3.66,84.68h36c-4-35.84,0-66,13.19-99.63l-35.36-4.79a309.33,309.33,0,0,1-1.3,36.91c-.58,6.47-1.32,12.93-2.14,19.37-.16,1.29-.33,2.58-.5,3.87.33-2.49-.21,1.55-.27,2-.44,3.22-.9,6.44-1.36,9.65q-5.31,37.08-10.68,74.15c-1.34,9.28,2.28,19.8,12.57,22.14s18.34-3.2,22.14-12.57l24.71-60.87L346.88,195a244.79,244.79,0,0,0-7.22,55c-.15,9,7,16.52,15.61,17.68,9.4,1.26,16.48-4.41,19.75-12.9a218.18,218.18,0,0,0,14.35-79.28c-.05-9.41-8.25-18.44-18-18s-18.05,7.91-18,18l.26,61.56h36a427.93,427.93,0,0,1,1.7-45.29q.5-5.28,1.11-10.55c.23-1.92.46-3.84.72-5.75-.39,2.88.45-2.92.44-2.86,1.15-7.63,2.53-15.22,4.08-22.78H363A264.54,264.54,0,0,0,378.11,208c3.37,8.76,12.25,15.77,22.14,12.57,8.8-2.85,15.86-12.61,12.57-22.14q-16.14-46.86-28-95c-2.25-9.15-13.06-15.51-22.14-12.58-10,3.23-14.38,12.2-12.57,22.15,2.54,14,9.58,26.68,19.18,37.06l25.45-25.46A338.11,338.11,0,0,0,339.15,79c-9-5.92-24.61-.49-26.45,10.76a73.15,73.15,0,0,1-2.14,9.49c-.47,1.56-1,3.08-1.57,4.62-.77,2-.79,2-.08.19-.33.74-.69,1.47-1.06,2.19a72.1,72.1,0,0,1-5,8.37c-.46.67-.93,1.33-1.42,2q1.49-1.94.28-.47c-1.33,1.33-2.52,2.83-3.84,4.19L328,137.84a56,56,0,0,1,1.31-5.7c.25-.84,2.57-6.59.71-2.55a79,79,0,0,1,5.47-9.48c.76-1,.57-.8-.58.74.62-.75,1.26-1.49,1.91-2.2,1.33-1.45,2.8-2.72,4.18-4.09q2.34-1.94-.23,0c.78-.58,1.58-1.13,2.39-1.67A54.08,54.08,0,0,1,348.2,110L323.57,85.38c-.89,1.3-1.81,2.57-2.73,3.85,2.19-3-.54.68-1.06,1.3q-3,3.63-6.31,7T306.61,104c-1.19,1-2.41,2-3.62,3,2.92-2.44-1,.75-1.37,1a116.22,116.22,0,0,1-16.14,9.7c-1.41.7-2.84,1.35-4.26,2,2.33-1.08.62-.24-.78.31-3.17,1.23-6.4,2.31-9.67,3.27l22.79,17.36c.12-1.75.3-3.5.46-5.25-.32,3.57.32-1.92.37-2.18q.92-5.19,2.33-10.28c.94-3.4,2.12-6.69,3.3-10l.64-1.63c-.57,1.32-.6,1.41-.09.25.89-1.84,1.74-3.71,2.67-5.54,3-5.83,3.4-12.36,0-18.17-2.88-4.93-9.49-9.71-15.54-8.91-23,3-44.49,13.06-59.24,31.44-4.68,5.82-6.79,12.4-3.73,19.66,2.61,6.19,9.37,11.57,16.45,11.07a106.26,106.26,0,0,0,65.4-28c11.7-10.79,2.4-30.62-12.72-30.73a511.36,511.36,0,0,0-92.17,8L211.26,125q24.93-6.75,49.23-15.5c8.84-3.18,15.73-12.4,12.58-22.14-3.22-9.95-12.2-14.39-22.15-12.57q-17,3.1-34.07,5.85c-5.37.86-10.78,1.54-16.13,2.49-2.8.5,2.66,0-.59.07-.85,0-1.76,0-2.61.09-2.87.23.77.09,2.06.7a10.45,10.45,0,0,1,4.33,3.73c-4.65-8.19-16.53-11.67-24.63-6.45-8.56,5.52-11.06,15.65-6.46,24.62l27.19,53c7.28,14.2,28.75,9.91,32.9-4.3a134.88,134.88,0,0,0,5.1-48c-.71-9-6.31-16.43-15.61-17.68a18,18,0,0,0-19.75,12.89,176.42,176.42,0,0,1-6,17.47c1.32-3.26-.55,1.22-.85,1.88q-1,2.28-2.15,4.55-2,4.15-4.31,8.18a168.9,168.9,0,0,1-9.93,15.58c-.82,1.14-1.65,2.26-2.49,3.38,2.08-2.76-1.23,1.49-1.35,1.63-2.14,2.6-4.36,5.12-6.64,7.59l30.73,12.73a62.63,62.63,0,0,1-.43-11.45c0-.6.89-5.53.09-1.73.4-1.87.73-3.75,1.22-5.6s1.12-3.66,1.72-5.48c1.17-3.52-1.21,1.81.77-1.72a89.64,89.64,0,0,1,6.05-9.73l-33.54-9.08a60.29,60.29,0,0,1,.51,7.23c0,1.46-.1,2.89-.17,4.34-.1,2.15-.14,1,.14-.46-.46,2.38-.9,4.74-1.57,7.07-.4,1.4-.89,2.76-1.36,4.14-1.1,3.22.88-1.47-.15.39-1.19,2.12-2.19,4.31-3.49,6.37-.64,1-1.35,2-2,3,1.33-2,.86-1-.33.34a53.77,53.77,0,0,1-5.07,5.17c-1.32,1.19-2.27,1.83-.28.39-1.18.86-2.39,1.66-3.61,2.44L185.22,186a64.27,64.27,0,0,1-.56-10.38c0-.8.08-1.59.12-2.39,0-.27.19-3,0-.8s.08-.47.13-.77c.2-1,.4-2.1.64-3.14.35-1.57.77-3.11,1.24-4.64.32-1,.68-2,1-3,.07-.22,1.09-2.66.29-.82-.66,1.52,1.15-2.26,1.5-2.91.88-1.64,1.84-3.25,2.87-4.81.44-.67.93-1.3,1.37-2,1.28-1.93-.35.51-.37.47l.88-1-20.11-2.57c-.28-.23-.77-3.05-.52-1.22.1.67,1.15,4.85.76,2.88s0,.38.07.73c.07,1.05.14,2.09.17,3.14,0,1.84-.19,3.68-.17,5.51,0,2.06.11-.54.17-.87-.13.78-.27,1.55-.43,2.33-.31,1.54-.7,3.07-1.15,4.58-.32,1.09-2.06,5.36-.66,2.35A54,54,0,0,1,170,171.6c-.36.62-2.59,4.11-1.66,2.75s-1.61,1.87-2.16,2.43a22.79,22.79,0,0,1-1.74,1.67c1.42-1.19,1.05-.64-.28-.13a12.74,12.74,0,0,1,3.28-1c.26,0,3.22.82,1.28.18s.85.43,1,.53c-.21-.21-2.4-1.41-.61-.21s-.21-.1-.42-.49c.11.21,1.4,2.57.56.77-.34-.72-.85-1.38-1.19-2.11,1.08,2.32.36-.13-.07-1.26-.68-1.8,0,.07,0,.6-.06-.85-.11-1.7-.13-2.55,0-1.71.21-3.42.17-5.12,0-2-.09.07-.14.5.11-.86.27-1.71.43-2.56.43-2.27,1-4.51,1.63-6.73.5-1.66,1.13-3.27,1.67-4.92.63-2,0-.05-.16.3.37-.78.74-1.56,1.13-2.34.77-1.55,1.61-3.07,2.5-4.55.24-.39,2.11-3.25.76-1.39-.67.79-.66.81,0,.05s.68-.74-.17-.07c-1.9.34-3.14,1.51-5.34,1.32a18.28,18.28,0,0,1-2.77-.77c.44.1,2,1.64.58.31-1.88-1.69,3.09,4.38.5.5,1.05,1.57,2.06,3.16,3,4.8.83,1.45,1.61,2.92,2.34,4.43.36.75.71,1.5,1.06,2.26-.16-.33-.85-2.39-.23-.44,1.2,3.72,2.51,7.34,3.35,11.17.17.75,1,5,.71,3.36s.26,2.62.31,3.41c.27,3.93-.06,7.75-.1,11.67,0,2.56,0-1.28.23-1.23,0,0-.37,1.91-.4,2.05a38.47,38.47,0,0,1-1.36,4.68c1.11-3.21.52-.5-.68.46a24.8,24.8,0,0,0,2-2.23c1-.69,1.1-.77.26-.24s-.74.45.25-.05c.26,0,2.31-1,2.57-.53a22.75,22.75,0,0,0-2.33,0c-1.87.26.41.16.9.23-.93-.14-1.87-.33-2.79-.54-1.39-.31-2.77-.68-4.12-1.1-.67-.22-1.34-.52-2-.69-2.41-.63,2.58,1.33.36.2-2.76-1.41-5.41-2.87-8-4.55-2.85-1.82,1.66,1.6-.88-.63-1.26-1.1-2.49-2.21-3.67-3.39s-2.2-2.5-3.36-3.68c2.1,2.14.29.41-.61-.91s-1.55-2.39-2.25-3.63c-.35-.61-.69-1.24-1-1.87-.19-.37-1.66-3.14-.61-1.06s0-.07-.17-.48c-.32-.89-.64-1.78-.92-2.68-.43-1.36-.8-2.73-1.1-4.12-.4-1.79-.37-4-.27-.84-.05-1.66-.24-3.3-.24-5s.21-3.31.24-5c-.05,3.12-.16,1,.22-.83a58.28,58.28,0,0,1,2.89-9.51c-1.15,2.94-.14.5.59-.87s1.37-2.5,2.13-3.71,1.6-2.36,2.4-3.54c-2.09,3,.75-.75,1.76-1.8s2-2,3.06-3,3.35-2.32.78-.74c2.82-1.73,5.49-3.76,8.61-5-3.16,1.21,2.18-.51,2.23-.39.14.42-5.45-.45-1.85.15,3.25.55-2.51-1.14.39.31-2.81-1.41-1.54-1.41-.58-.36.6.66,1.2,1.34,1.83,2-2.11-2.13-.53-.63.37.89.73,1.21,1.36,2.48,2,3.74.18.36,1,2.55.23.44s.15.55.35,1.1c.7,2,1.33,4,1.93,6q1.6,5.38,2.8,10.87c.47,2.13.88,4.28,1.25,6.43.16.92.3,1.85.46,2.77-.33-2,0-.17.1.78a151.63,151.63,0,0,1,.82,24.29c-.09,1.87-.21,3.74-.38,5.61-.06.7-.16,1.41-.2,2.11-.16,2.66.56-3.16.09-.52-.55,3.09-1.09,6.16-1.9,9.19-.38,1.39-.79,2.77-1.25,4.13-.3.9-.68,1.79-1,2.69.06-.19,1.37-2.83.42-1-1.42,2.7-2.85,5.26-4.53,7.81,1.67-2.53.48-.66-.71.55-.61.62-1.41,1.21-2,1.88.13-.15,2.63-1.74.93-.7-1.16.71-2.47,1.39-3.57,2.18-1.54,1.1.86-.29,1.17-.39-.87.28-1.71.61-2.59.86-.64.18-1.35.27-2,.48-2.37.84,3.28-.09.76,0-1.36,0-2.7.16-4.07.12l-2-.12c0-.12,3.51.7,1.38.19-1.57-.37-3.16-.65-4.72-1.12-.88-.26-1.76-.65-2.65-.89.19,0,2.86,1.4,1.07.46-1.26-.66-2.53-1.25-3.76-2s-2.36-1.55-3.57-2.3c-1.69-1.05.68.51.84.67-.68-.65-1.43-1.23-2.11-1.88-1.2-1.13-2.24-2.39-3.38-3.57-1.32-1.37.42.52.55.73-.42-.67-.9-1.3-1.34-2q-1.29-2-2.41-4.07c-.37-.7-.71-1.41-1.08-2.1-1.55-3,.25,1.16-.36-.77-1-3-2-6-2.76-9.1-.36-1.56-.68-3.13-.95-4.7-.14-.79-.27-1.58-.38-2.38.53,3.73.07,0,0-.81a123.93,123.93,0,0,1,.16-21.45c.08-.92.17-1.83.26-2.74,0-.06.4-3,.14-1.25s.21-1.19.22-1.24c.17-.9.32-1.81.5-2.71a94.38,94.38,0,0,1,3.27-12.38c.3-.87.63-1.73.93-2.59.11-.32,1-2.6.18-.55s.9-1.87,1.2-2.47a85.19,85.19,0,0,1,5-8.75c.79-1.2,1.67-2.34,2.45-3.54,1.1-1.69-.51.61-.64.77.45-.56.9-1.12,1.36-1.67a94.06,94.06,0,0,1,6.84-7.42c2.25-2.2,4.62-4.26,7-6.27,2.64-2.2-1.83,1.24,1-.75,1.39-1,2.78-2,4.21-2.92a123.33,123.33,0,0,1,16.73-9.26c.67-.3,1.35-.59,2-.9-.19.09-2.82,1.11-.89.39,1.61-.6,3.2-1.26,4.83-1.84,3-1.08,6.05-2,9.12-2.9s6.44-1.66,9.69-2.31q2.79-.55,5.61-1c.93-.15,1.87-.3,2.81-.43,3.13-.45-2.3.24.85-.09a240.38,240.38,0,0,1,50.24.45c1.9.2,3.8.43,5.7.65,0,0,3.08.39,1.41.17s1.43.2,1.4.2q6.63.94,13.23,2.06C299.57,89,307,90.32,314.4,91.86c6.61,1.38,13.2,3,19.66,5,3,.92,5.87,2,8.77,3,3.26,1.21-1.78-.9,1.36.55,1.84.86,3.67,1.73,5.46,2.68a82.24,82.24,0,0,1,7.76,4.67c.62.43,1.22.89,1.84,1.31,2.2,1.47-2-1.87-.08,0,1.27,1.22,2.67,2.31,3.93,3.55,1.09,1.07,2.11,2.2,3.15,3.32.06.07,1.9,2.21.76.82s.59.81.66.91a83.14,83.14,0,0,1,6.1,10.29c.76,1.53,1.51,3.08,2.17,4.67-1.08-2.62.41,1.28.7,2.08q2,5.46,3.45,11.09c.91,3.42,1.68,6.89,2.32,10.38.29,1.6.53,3.21.79,4.82.34,2.12-.08-.46-.1-.75.1,1.08.24,2.16.34,3.24A152.54,152.54,0,0,1,384,184.6c-.15,3.55-.42,7.09-.79,10.61-.09.82-.2,1.63-.28,2.45,0-.29.43-2.83.1-.71-.29,1.9-.58,3.8-.91,5.7a211.32,211.32,0,0,1-12,41.58c-.41,1-.83,2.08-1.27,3.11.14-.31,1-2.32.17-.43-.7,1.53-1.36,3.08-2.06,4.61q-2.46,5.34-5.17,10.58-5,9.67-10.78,18.93t-12.1,17.84c-.49.66-1,1.33-1.48,2-.09.12-1.77,2.27-.61.8s-.55.67-.65.78l-1.56,1.92c-2.46,3-5,5.88-7.65,8.68q-3.37,3.6-7,7c-1.41,1.3-2.84,2.58-4.3,3.82-.62.52-1.29,1-1.89,1.57-2.06,1.87,2-1.42-.24.22a109.59,109.59,0,0,1-17,10.4c-.61.29-4.44,1.95-2.39,1.12s-2.6.95-3.14,1.14q-4.35,1.55-8.82,2.67c-3,.76-6,1.33-9,1.88-3.54.65,2.73-.22-.85.13-1.65.15-3.3.31-5,.42a110.86,110.86,0,0,1-18.49-.38l-2.13-.24c.61.07,3.91.64.55.05-1.4-.25-2.8-.49-4.2-.77q-4.54-.91-9-2.2c-3-.86-5.86-1.89-8.76-2.94-3.28-1.19,2.22,1.09-.95-.36-1.51-.69-3-1.39-4.49-2.14-2.74-1.38-5.43-2.89-8-4.51-1.21-.75-2.4-1.53-3.57-2.33-.9-.62-5.23-4-2.06-1.4a114.22,114.22,0,0,1-14.28-14c-.58-.68-3.08-3.84-1.35-1.57q-1.51-2-2.95-4.05c-2.23-3.2-4.33-6.5-6.31-9.87a208.7,208.7,0,0,1-10-19.45c-.7-1.54-1.37-3.08-2-4.63a15.13,15.13,0,0,1-.8-1.91c-1.59-3.91-3.15-7.84-4.65-11.78C158.07,244,151.7,228.59,148,213c0-.13-.5-3-.25-1.11s0-1,0-1.14c0-.91,0-1.82,0-2.74,0-.38.44-4.24.14-2.36-.27,1.67.34-1.42.34-1.38.22-.94.43-1.88.67-2.81.55-2.18,1.18-4.33,1.8-6.49q3.57-12.24,7.16-24.48c4.3-14.71,8.06-29.77,13.82-44-1.24,3.07.77-1.6,1.19-2.47.71-1.48,1.46-2.93,2.25-4.37a72.13,72.13,0,0,1,5.71-9c-1.94,2.56,1.24-1.29,1.81-1.91q1.57-1.68,3.25-3.24c.51-.47,3.64-3.23,2.24-2-1.56,1.31.37-.27.6-.44,1-.73,2.09-1.45,3.16-2.14a76.31,76.31,0,0,1,8-4.47l2.09-1c-.24.11-2.7,1-.76.32S205,94.33,207,93.7c3-.94,6-1.72,9-2.37,1.52-.33,3-.62,4.58-.87.56-.09,3.83-.48,1.45-.23s1.07-.08,1.46-.11c17.09-1.56,29.36.36,45,3.89,7.85,1.77,15.63,3.85,23.38,6,3,.83,6,1.67,8.85,2.76-5.05-1.91,2.87,1.61.23.15-1.77-1,.12-.21.36.36-.21-.49-2.07-3.21-.25-.29,5,8,16.29,11.83,24.62,6.45,8-5.15,11.8-16.08,6.46-24.62Z" transform="translate(0 -16.41)"/><text class="cls-2" transform="translate(44.1 319.18) rotate(-10)">{</text><text class="cls-2" transform="matrix(-0.98, -0.17, -0.17, 0.98, 467.9, 319.38)">{</text><path class="cls-3" d="M219.81,87.3c-18.89,6-38.78,11-55.94,21.16-8.47,5-16.67,11.34-22.83,19.08a98.83,98.83,0,0,0-6.21,8.36,18.47,18.47,0,0,0-1.51,2.56l6.61-5.13a13.44,13.44,0,0,1,12.21-5.86,39,39,0,0,0-4-.07c-18.18-.32-34,11.06-37.8,29.29-1.9,9.09-1.52,18.21-1.21,27.41.1,3.17.19,6.34.12,9.52-.12,5.35,1.11-6.9.22-1.86a38.07,38.07,0,0,0,.08,16.15,46.38,46.38,0,0,0,3.42,8.7c.31.67.64,1.33,1,2,1.22,2.29-.85.49-.89-2.43a13,13,0,0,0,.58,1.8c.56,2.91-.46-5.15-.26-2a74,74,0,0,0,1.61,11.47c2.38,10.43,7.94,20.31,13.63,29.28,10.59,16.68,20.33,33.65,29.67,51.07,4.83,9,9.7,18,14.88,26.83,2.95,5,5.93,10.23,10.24,14.24,5.4,5,11.22,7.8,18,10.42,1.79.68,3.61,1.29,5.42,1.89.91.3,1.83.64,2.75.91,3.93,1.11-1.67-.8-2.08-1,2.8,1.57-2.67-1.8-2.43-1.94a16,16,0,0,1,1.49,1.54c1.31,1.44,2.47,3,3.68,4.52a38,38,0,0,0,9.59,8.84c7.19,4.51,14.24,5,22.45,3.83,14.54-2.08,29.42-5.23,43.13-10.56,11.27-4.38,24.15-10.1,27.78-22.91A24.06,24.06,0,0,0,296.58,315a32.46,32.46,0,0,0-8.23-.9,11.13,11.13,0,0,0-1.3,0h-.64a20.53,20.53,0,0,1,9.91,2.74l8.39,8.4-.19-.29,3.19,11.81L305,347.1l-2.7,3.45s1.27-1.45,1.42-1.61c.86-.92,1.79-1.78,2.73-2.61.51-.44,1.06-.86,1.56-1.31,2.17-1.91-5.17,3.76-1.73,1.35,1.43-1,2.85-2,4.3-3,6.25-4.19,12.78-8,19.22-11.85,14.05-8.49,28.29-17.41,36.69-32,15.62-27.05,28.74-59.24,17.18-90.32-2.23-6-4.89-11.87-7.65-17.65-1.06-2.22-2.13-4.44-3.17-6.68-.51-1.09-1-2.19-1.5-3.29-2.49-5.59,1.84,4.77.16.41a131.43,131.43,0,0,1-4.93-16.35c-2.48-10.1-8.87-17.49-17.3-23.2-1.57-1.06-3.22-2-4.88-2.87.49.27-2.46-1.4-2.57-1.37,1.94-.63,3.86,3.72,1.8,1.28-.73-.87-1.54-1.72-2.31-2.55-2-2.21,2.74,3.82,1,1.31-1.22-1.77-2.5-3.51-3.77-5.24-7.43-10.08-16.31-17-27.34-22.91C292.2,100,272,90,250.51,86.66c-15.72-2.41-30.12-2.22-43.23,7.91-8.42,6.5-15.67,14.7-20,24.5A130.43,130.43,0,0,0,179,145.9c-.88,4.22-2,8.39-2.89,12.61-1.06,5.26,7.89-11,4.88-8.08-1.7,1.66,5.91-3.75,2.9-2.23-1.14.58-2.25,1.22-3.4,1.79-4,2,6-2.38.44-.21-1.35.53-2.71,1-4.06,1.55-4.44,1.7-8.91,3.43-13.19,5.48-11.51,5.54-16.68,15.44-17.94,27.81-1.15,11.3,2.69,22.46,5,33.37.91,4.36,1.25,8.75,2.71,13a75.44,75.44,0,0,0,7.93,16.4c4.91,7.56,11,14.29,15.81,21.93a138.11,138.11,0,0,1,6.89,12.86c1.45,3-1.43-3.94-.36-.83.36,1.05.8,2.09,1.17,3.14.88,2.48,1.67,5,2.45,7.48,7.68,24.69,20.54,56,52.55,48.79-6.39,1.43.19.74,2.43.81,2.48.08,4.95.1,7.43.05a127.8,127.8,0,0,0,14.75-1.28c8.18-1.1,16-3.08,23.27-7.22a42.25,42.25,0,0,0,20.6-28.76,101,101,0,0,0,1.46-13.87c.06-2,.07-4,.18-5.92a14.9,14.9,0,0,0,.17-2.46l-.53,3.91a18.81,18.81,0,0,1,.49-2.1c.38,0-3,5.7-1.15,2.89a18.35,18.35,0,0,1-5.61,5.86c-2.41,1.5-4.32,1.42-7,2.07,2.51-.6,5.19-.63,7.72-1.07a59.83,59.83,0,0,0,15.51-5.27c18.2-8.75,24.72-28.24,22.19-47.09a99.07,99.07,0,0,0-6-22.35c-.3-.78-.57-1.65-.94-2.39-1.54-3.13.16,1.63.16,2.44,0,5.75-.87,4.25-.24,2.39.29-.87.53-1.73.85-2.58,1.44-3.95,3.2-7.58,3.94-11.74,2.69-15.27-3.67-28.37-13.43-39.7-5.73-6.64-13-11.73-19.22-17.87q-2.39-2.34-4.6-4.85c-.74-.84-1.44-1.7-2.17-2.54-3-3.43.62.42.56.79.14-.89-3.26-4.66-3.8-5.5-1.51-2.35-2.89-4.77-4.21-7.22l-14,34.37q3.92-1.2-2.95-.46a10.53,10.53,0,0,1-7.38-1.18l11.81-43.61c-6.9-.09-13.79-.43-20.66-1.1-1.56-.16-3.11-.37-4.67-.51-3-.28,4.28.68-.31,0-3.41-.52-6.81-1.08-10.19-1.74-14.57-2.82-29.24-8.5-44.27-7.33-17.93,1.4-28.84,18.74-20.21,35.21,6.34,12.12,18.52,17.12,30.76,21.16.92.3,1.85.6,2.76.93,2.76,1,2.76,2.47-1.35-.65a12.22,12.22,0,0,0,2,1c3.77,1.74-4.17-4-1.28-1.08,1.48,1.51.61,1.92-1.61-2.22L210.05,160q1,3.74-.09-1.93c.34,4.37-.18-1.75.38-1.77a22.77,22.77,0,0,1-.88,2.95q2.11-4.74.36-1.35s-1.35,2.55-1.69,2.61l1.69-2.27c-.71.81-1.44,1.61-2.19,2.39-1.87,2-3.86,3.82-5.77,5.74-5.25,5.27-10.16,11.13-13.35,17.89A81.21,81.21,0,0,0,181,225.1c1.45,16,7.74,31.21,21.86,40s32.19,8.21,46.4.31c29-16.14,30.34-59,6.57-80.21-12.65-11.29-33.43-20.94-49.79-11.86-14.14,7.85-18.32,27.55-21.19,42.31a176.36,176.36,0,0,0-3.41,43.18c1,18.77,2.74,41.64,24,48.15,15.17,4.63,33.24,4.84,47.54-2.45,14.83-7.56,24-23.54,24.57-40,.57-17.23-10.69-37.71-28.26-42.06-19.89-4.91-36.37,13.39-44,29.68-5.85,12.43-8.35,25.47,1.91,36.76,8.25,9.06,21.32,9.43,32,5.62,15.2-5.41,28.52-16,36.41-30.2A65.35,65.35,0,0,0,281.88,217c-3.93-16.19-14-29-27.18-38.69-9.51-7-27.13-2.24-32,8.39-8.11,17.66-8.72,38.7,2.6,55.35,6.27,9.23,15.13,17.14,26.22,19.87a36.87,36.87,0,0,0,18.83-.31c3.27-.92-6.5.52-3.87.48,1,0,2-.12,2.92-.16,14.49-.58,31.34-.07,38.92-15.21,8.65-17.27-.58-32.92-10.47-46.9-3.94-5.56-6.4-11.89-10.37-17.39-6.75-9.34-14.43-16.29-23.6-23.2-4.34-3.27-13-4-18-2.36-5.66,1.83-11.12,5.34-14,10.76-7.68,14.51-8,30.28-1.16,45.16,6.31,13.83,21.33,23.75,36.6,23.75,17.57,0,31.38-13.36,35-30a57.9,57.9,0,0,0-6.77-42.82c-5.21-8.53-16.51-14-26.42-10.75-10.61,3.43-16,11.83-17.18,22.56-1.16,10.42,5.68,20.27,12.11,27.66,6.1,7,13.89,12.67,21.29,18.16a270.66,270.66,0,0,0,36.37,22.89c10.85,5.64,25.91,3.16,32-8.39,5.68-10.75,3.2-26-8.4-32a278.24,278.24,0,0,1-32.58-20.14c-1.59-1.12-3.15-2.29-4.72-3.44-2.52-1.85,1.64,1.25,2,1.56-.85-.72-1.77-1.39-2.63-2.1-2.56-2.09-5.06-4.26-7.4-6.59-1.09-1.08-2.09-2.23-3.14-3.35-2.55-2.73,3.27,5.33.79.91-2.2-3.9.05-.22.62,2.05-.71-2.83-.06,7.52.47,2.8l-43.61,11.81a45.07,45.07,0,0,0,2.24,4.12c-1.2-2.95-1.53-3.6-1-1.93a23,23,0,0,1,.63,2.26c1.23,4.13,0-3.61,0-.8,0,1.28,0,2.62.05,3.91.21,4.86,1.28-4.35-.05,0-.51,1.64-2.42,5.69.32,0-1.56,3.27,1.24-1.33,2.41-2.25a9.84,9.84,0,0,1,4.47-2.37q5.87-.47,3-.44c-2.77,0,5.55,1.38,1.65.08q4.85,2.25,2.46,1a16.27,16.27,0,0,1-1.77-1.1l2.6,1.9c-1.65-1.76-1.33-1.27,1,1.5.14-.16-3.14-5.06-.87-1.15,2.36,4.09-.53-1.52-.2-1.44q.53,5.29.33,2.54a18.46,18.46,0,0,1-.07-2.23c-.22-4.87-1.23,5,0,.34,1.13-4.36-2.39,4.4-.11.1l-32,8.39c-5.18-3.9-.27-.15.81.79,1.39,1.21,2.75,2.47,4,3.79,1.11,1.12,2.13,2.31,3.19,3.48,3.45,3.81-2.43-4.17.11.28,2.77,4.84,5.1,9.85,8.3,14.43s6.32,9,9.19,13.77c2.06,3.39-1.48-5.4-.59-1.5.63,2.78-.14,3.39-.17-2.4,0-6.44,4.63-12.09,9.79-15.51q7.3-2.72,3.95-1.82c-1.48.28-.95.23,1.57-.16,4.95-.65,1-.17-.09-.08s-2.44.14-3.67.19c-2.11.09-4.22.13-6.33.2a79.26,79.26,0,0,0-8,.7c-1.57.21-3,.41-4.46.68-4.27.79,4.63-.05,5.34.15q4.53,2.19,2.16.93a15.52,15.52,0,0,1-1.94-1.19q4,3.24,1.32.7l-1-1.08q3.18,4.31,1.09,1.24c-.39-.61-.74-1.24-1.07-1.89q-1.21-2.37.84,2.31c-.35-.9-.66-1.82-.93-2.75-.64-2.18-.05-5.54-.29.54.06-1.38-.13-3-.17-4.35-.14-4.76-1.4,4.73-.16.47.48-1.66,2.9-7.59,0-1.24l-32,8.4c-5.61-4.13-.41-.14.73,1,.67.69,1.32,1.4,1.94,2.14q-3.21-4.32-1-1.3c.78,1.23,1.56,2.42,2.26,3.7q.69,1.26,1.29,2.58c-1.37-3.39-1.61-3.92-.73-1.57.52,1.85,1,3.71,1.54,5.56,1.18,4.32-.08-5.31-.06-.5,0,1.93,0,3.83,0,5.76-.09,4.65,1.22-5.53-.19.19-.23,1-1.78,4-1.51,4.82q2.2-5,.59-1.65c-.44.86-.91,1.7-1.4,2.52-.74,1.23-1.7,2.37-2.41,3.6,3.22-5.54.39-.78-1.12.67-.69.67-1.41,1.32-2.14,1.94q4.31-3.21,1.29-1c-1.24.74-2.42,1.56-3.69,2.25-.84.46-1.7.89-2.57,1.29q5.09-2.07,1.56-.79c-.91.31-1.83.57-2.77.81a18.83,18.83,0,0,1,8.08-.17l10.33,6,2.42,3,3.2,11.81-.68,3.88q1-3-.68,1.32c.2-1.38,1.61-3.31,2.3-4.51.84-1.48,1.8-2.86,2.71-4.29,2.94-4.65-3.44,3.24.54-.55,1.42-1.36,5-3.71-.09-.72L230.7,264q2.52,2.73-.83-1.39l.78,1.23q1.75,3.31-.47-1.64A25,25,0,0,1,231,265q-.56-5.73-.26-1.88v1.46c-.18,2.57-.09,2,.27-1.88l-.38,1.41c-.83,2.37-.61,1.85.68-1.55l-.73,1.26q-2.09,3.09,1-1.24l-1,1.05q-2.79,2.48,1.32-.93l-1.25.75q-3.18,1.6,1.18-.49l-1.59.44q-3.88.76,1.3-.08c-.32.48-4.46.07-5,0q-1.69-.08-3.39-.27c3.39.49,3.78.53,1.15.13a28.56,28.56,0,0,0-4.88-.93l9.09,7.59q2,5.24,1.13,1.61c0-1.77-.82-3.58-.89-5.36.23,6.23.08.22,0-1a149,149,0,0,1-.42-23.52c.11-1.81.25-3.62.42-5.42.12-1.17.34-7.24,0-1,.17-3.53,1.19-7.25,2-10.69s1.69-7.05,2.72-10.52q.78-2.59,1.65-5.18c.39-1.14.79-2.28,1.21-3.41q-3.57,11.61-19.8,10.59c1.28.47,2.84.78,4.17,1.13,4.77,1.23-4.45-2.72-.28-.1a43,43,0,0,0,3.7,2.24l-2.44-1.93c.75.6,1.46,1.24,2.15,1.91l1,1c1.63,1.86,1.31,1.39-.93-1.43,0,.07,2.23,3.67,2.23,3.67l-1.18-3a24.31,24.31,0,0,1,.89,2.74,26.86,26.86,0,0,1,.61,2.83q-.69-5.76-.48-1.91c-.07.69,0,5.46.09,1.2.06-4-.29.15-.49,1.09-1,4.79,2.55-4.59.08-.37s3.81-3.63.21-.19,4.69-2.64.42-.28,5.3-1.13.57-.13l-1.33.37c-2.5.5-1.78.44,2.16-.2a25.08,25.08,0,0,1-2.74,0q5.92,1,2.19.26c-4.62-1.54,4.7,3,.56.4s3.91,3.75.43.34c-3.3-3.23,2.32,4.69.43.52l-.64-1.17q-1.59-3.33.79,1.89c.18-.55-.89-3.33-1.07-4-1.32-4.78.16,5.68.1.67,0-3.34,0-6.58.22-9.92.37-5.07-1.29,5.75.05.06.4-1.68.67-3.38,1.12-5.05.37-1.4.73-3.7,1.58-4.89-3.33,4.68,0,.85.69-.51,2.31-4.63-3.39,3.26.27-.38,1.15-1.15,2.22-2.37,3.36-3.52,2.68-2.69,5.46-5.27,8-8.13,7.78-8.91,13.53-19.69,13.82-31.78.27-10.83-4.14-21.89-12.55-28.89-6.78-5.64-14.45-8.69-22.77-11.41-1.1-.36-2.21-.72-3.3-1.11-5.63-2,3.63,2.21.45.16-2-1.26-3.32-3.08,1.24,1.29-2.6-2.49,3.15,5.62.49.55l-20.2,35.21c1.91-.15,3.73-.13,5.64-.15,4.5,0-2.42-.69.34-.07,3.41.76,6.82,1.45,10.22,2.31,6.4,1.61,12.82,3.11,19.32,4.26a276.72,276.72,0,0,0,44.58,4.37c9.87.13,20.32-7.32,22.56-17.18,2.33-10.23-1.57-20.9-10.75-26.42-7.44-4.47-17.45-6.15-25.73-3.08-14.38,5.34-21.62,20.18-14,34.38a125.14,125.14,0,0,0,18.63,25.8c5.77,6.2,12.6,11.22,18.63,17.15.55.55,3.46,4.31,4,4.26-1.13.1-2.81-4.13-1.07-1.31.48.78,1,1.66,1.48,2.42,1.81,2.63-1.56,0-.58-1.73-.07.13,1,2.91.85,2.76-.94-1.14-.46-6.51,0-7.22-.53.75-.61,2.39-.91,3.27-1.19,3.5-3,6.78-3.84,10.39a35.31,35.31,0,0,0,.72,20.61A163,163,0,0,1,296,249c.66,2.77-.55-5.87-.38-3.08,0,.68.13,1.35.17,2,.07,1.29-.08,2.6,0,3.88.14,2.7,1.28-6,.49-3.47a16.51,16.51,0,0,0-.41,1.75c-.79,4.13,3.16-5.39.47-1.17-1.78,2.8,4.57-4.72.85-1.25-2.46,2.29,5.45-3.43.76-.75a16.65,16.65,0,0,0-1.93,1c.35-.29,5.74-1.91,2.29-1.06-2,.48-3.94,1-5.9,1.48-3.8.94,9.3-1.19-.66.15a38.88,38.88,0,0,0-4.83.78,34.68,34.68,0,0,0-7.92,3.42c-6.86,3.85-11.74,11.31-13.91,18.72a59.78,59.78,0,0,0-1.85,14.37c-.07,1.77-.09,3.54-.15,5.31-.06,1.47-.84,8.78,0,2.81.75-5.59,0-.3-.42,1.11-.19.69-.53,1.38-.69,2.08,1.46-6.34,2.19-5.43.87-2.59-.09.21-.65.81-.63,1,0-.33,4.25-4.56,2.54-3.33a15,15,0,0,0-1.79,1.77c-2.06,2.21,5.64-3.48,2.25-1.83a26.13,26.13,0,0,0-3,1.64c5.27-3.56,4.42-1.73,1.48-.8-1.28.4-2.58.73-3.89,1-.72.15-1.45.27-2.17.43-3.53.78,2.55-.3,2.7-.31-2.22.07-4.46.46-6.68.58-4,.2-8.05.18-12.07,0a52.46,52.46,0,0,0-9.29.24l-3.11.42q-3.15.44,0,0c4.11.66,8.18,1,11.59,3.69-2.74-2.2.39.29.73,1.23a18.52,18.52,0,0,0-1.73-2.55c-1.09-1.75-2-3.58-2.93-5.41-1.86-3.6.47.73.52,1.31a16.29,16.29,0,0,0-1.09-2.92c-.79-2.23-1.51-4.48-2.22-6.73-3.15-10-6.48-19.94-11.21-29.38-4.1-8.18-9.43-15.4-14.94-22.66a118.35,118.35,0,0,1-7.16-10.21c-1.07-1.75-2-3.55-2.9-5.37-1.41-2.73,1.35,4.37.68,1.39-.27-1.22-.75-2.41-1-3.64-.91-4.23-1.39-8.51-2.41-12.73-.53-2.23-1.1-4.44-1.62-6.67-.25-1.11-.46-2.23-.72-3.34-1-4.38.07,3.32,0,.43-.05-1.09-.18-2.17-.19-3.26s-.49-4.36-.16-.87l-.21,1.54q1.35-4.77-2.29,3l-2.64,4.53c1-1,.48-.61-1.45,1-4,3-.55.57.52,0,1.85-1,6.71-2.46-.77.2a158.28,158.28,0,0,0,20.41-8.41c9.73-5.11,14.41-13.56,16.81-24,1.76-7.63,3-15.42,5.35-22.9.48-1.49,1.11-2.93,1.58-4.42-2,6.41-.55,1.47.56-.45.45-.79,1-1.54,1.44-2.33,1.85-3.21-.66,1-1.15,1.34,1.88-1.4,3.54-3.77,5.27-5.41,2.63-2.5-1.1.87-1.12.74a14.48,14.48,0,0,1,2.61-1.62c-.14.48-5.4,1.91-.78.74-1.25.31-4.71,0-.89.46,1.15.13,2.44.14,3.58.2,3.22.17.31,1.06-1-.21,1,1,5.58,1,6.92,1.28a120.11,120.11,0,0,1,13.54,3.87c2.23.78,4.42,1.64,6.62,2.49,4.36,1.67-.3-.33-.67-.31,1-.05,4,1.78,4.87,2.19a264.78,264.78,0,0,1,24.82,12.85c.95.57,1.85,1.19,2.8,1.75,3.86,2.32-.84-.25-.79-.71a48.93,48.93,0,0,0,4,4.08c-2.9-2-2.61-3.48-1.21-1.5l1.67,2.34c2.29,3.18,4.63,6.35,7.13,9.39a41.68,41.68,0,0,0,11,9.42c1.73,1,3.55,1.93,5.3,2.92,1,.53,3.16,2.41.14-.14-3.2-2.71-.6-.61-.08.1,1.84,2.47-3.7-5.61-1.42-1.58-3.42-6-1.89-4.82-1.22-2.12s1.08,5.24,1.87,7.82a166.33,166.33,0,0,0,7.81,19.72c1.95,4.36,4.09,8.64,6.1,13,.46,1,.91,2,1.36,3,1.87,4.07-2.35-6-.77-1.85.81,2.14,1.62,4.28,2.26,6.47s1,4.23,1.48,6.37c.76,3.42-.61-7.1-.3-2,.08,1.32.17,2.64.17,4s0,2.47-.1,3.71c-.07,1-.69,6.19,0,1.28s-.06-.07-.28,1c-.37,1.85-.82,3.68-1.33,5.5-.91,3.28-2,6.51-3.25,9.68-.34.87-.74,1.73-1.05,2.61.17-.48,2.34-5.18.6-1.53-1,2.16-2,4.33-3.07,6.46-2,4-4.12,7.93-6.35,11.8-.82,1.45-2.25,3.15-2.84,4.72,2-5.33,3.6-4.15,2-2.72-.68.62-1.29,1.37-1.95,2-1,.95-2,1.81-3.06,2.7-2.73,2.37,5-3.62.28-.26-2.67,1.92-5.42,3.71-8.19,5.46-6.29,4-12.73,7.67-19.05,11.57-14.39,8.89-38.69,23.95-32.05,44.46a25.63,25.63,0,0,0,17.58,17,28.3,28.3,0,0,0,8.05.88c6,0-1.13.9-8.59-3.05l-8.39-8.39.09.2-2.36-18c1.25-4,4.73-10,8.63-11.88-.38.19-.7.51-1.06.71-1,.53-1.89,1.12-2.86,1.62s-1.93.85-2.86,1.34c6.73-3.48,2.15-.95.17-.24A176.23,176.23,0,0,1,252,328.44q-8.17,1.94-16.47,3.39c-1.09.19-2.19.33-3.28.54-5.78,1.13,8.41.29,8.39.29,5.17,1.16,5,2.5,3.21,1.25.07,0,3.76,3.63,2.83,2a32.23,32.23,0,0,0-3-3.38c-5.73-7.08-11.54-11.95-20.31-15.12-2.93-1.06-5.91-2.08-8.87-3-2.35-.74,2.36,1,2.35,1a14.7,14.7,0,0,0-2.41-1.3c-.58-.28-2.88-1.75.19.24q2.43,2,.38,0l2,2.49c.5-.77-5.63-9.54-6.34-10.79-2.32-4-4.57-8.12-6.8-12.21-4.09-7.5-8.07-15.05-12.14-22.55-8-14.83-17.28-28.76-25.86-43.24-1.66-2.82-2.89-7.28-5.06-9.62,2.2,2.37,1.25,3.38.57,1.09-.23-.76-.5-1.5-.72-2.26s-.38-1.51-.59-2.26c-1.37-4.76.11,3.69.06,1a41.28,41.28,0,0,0-3.63-16.17c-.77-1.83-1.54-3.59-2.44-5.35-.46-.88-1.7-3.33.05.3s.44-1.53.84,2.62c.08.81-.26,6.05,0,5.07.42-2,.68-4.52.89-6.5.1-1,.19-1.88.22-2.82.11-3,0-6-.13-9s-.23-6.13-.28-9.19c0-1.57,0-3.14,0-4.7,0-.62,0-1.23.06-1.84.2-4.31.37.1-.36,1.38a16.52,16.52,0,0,0,1-4c.27-1.64-2.59,5.58-.69,2.15-1.3,2.34-2.29,3.15-5.42,5.3,3.67-2.52-4.75,1.74-2.48.85,1.12-.43,4.52-.81-.53-.12s-1.75.2-.58.23,2.58.09,3.86.1a27.44,27.44,0,0,0,8.77-1c7.6-2.52,11.87-7.21,16-13.73.4-.62.85-1.21,1.24-1.84,1.47-2.39-3.32,3.72-.48.68,1.35-1.45,2.67-2.9,4.13-4.25.54-.5,1.1-1,1.67-1.48,2.8-2.41,1.2-.3-.63.4,1.68-.64,3.48-2.42,5-3.38A110.45,110.45,0,0,1,197,143.93c.6-.29,3.11-1.33,0,0-3.26,1.35.08,0,.74-.27q2.84-1.1,5.71-2.08c9.52-3.24,19.19-6.09,28.78-9.12,11.66-3.67,20.33-16.45,16.34-28.78-3.78-11.7-16.28-20.29-28.78-16.34Z" transform="translate(0 -16.41)"/><path class="cls-4" d="M256.09,58h0c113.1,0,176.84,130,107.61,219.38l-59.78,77.23a27.63,27.63,0,0,1-21.85,10.71H224a27.64,27.64,0,0,1-22.67-11.83l-56.87-81.61C81.57,181.63,146.13,58,256.09,58Z" transform="translate(0 -16.41)"/><path class="cls-4" d="M294.64,393.37l-8.51,29a31,31,0,0,1-29.77,22.29h0A31,31,0,0,1,228,426.16L213.84,394a5.32,5.32,0,0,1,4.87-7.46h70.82A5.33,5.33,0,0,1,294.64,393.37Z" transform="translate(0 -16.41)"/><path class="cls-4" d="M271.26,365.29v-31.2a17.66,17.66,0,0,0-17.66-17.65h0a17.65,17.65,0,0,0-17.66,17.65v31.2" transform="translate(0 -16.41)"/><path class="cls-3" d="M209.84,157.67c9.42,0,18.44-8.28,18-18s-7.91-18-18-18c-9.41,0-18.43,8.28-18,18s7.91,18,18,18Z" transform="translate(0 -16.41)"/></svg>